<?xml version="1.0" standalone="no"?>
<!DOCTYPE svg PUBLIC "-//W3C//DTD SVG 1.1//EN" "http://www.w3.org/Graphics/SVG/1.1/DTD/svg11.dtd" >
<svg>
<metadata>
Created by FontForge 20090914 at Wed Dec  9 07:01:48 2015
 By www-data
</metadata>
<defs>
<font id="Decker" horiz-adv-x="1024" >
  <font-face 
    font-family="Decker"
    font-weight="400"
    font-stretch="normal"
    units-per-em="2048"
    panose-1="2 11 6 3 5 3 2 2 2 4"
    ascent="1638"
    descent="-410"
    x-height="1100"
    cap-height="1456"
    bbox="-342 -483 2605 1972"
    underline-thickness="0"
    underline-position="0"
    unicode-range="U+0020-U+2122"
  />
<missing-glyph horiz-adv-x="1229" 
d="M102 -362v1806h1024v-1806h-1024zM217 -248h795v1577h-795v-1577z" />
    <glyph glyph-name=".notdef" horiz-adv-x="1229" 
d="M102 -362v1806h1024v-1806h-1024zM217 -248h795v1577h-795v-1577z" />
    <glyph glyph-name="space" unicode=" " horiz-adv-x="578" 
 />
    <glyph glyph-name="exclam" unicode="!" horiz-adv-x="588" 
d="M365 379h-142v1077h142v-1077zM365 0h-142v266h142v-266z" />
    <glyph glyph-name="quotedbl" unicode="&#x22;" horiz-adv-x="569" 
d="M473 1434v-553h-102v553h102zM199 1434v-553h-101v553h101z" />
    <glyph glyph-name="numbersign" unicode="#" horiz-adv-x="1575" 
d="M975 864h-266l-97 -276h267zM918 1454l-168 -483h264l172 483h127l-170 -483h315l-37 -107h-317l-98 -276h340l-37 -109h-340l-170 -479h-129l172 479h-269l-172 -479h-127l170 479h-327l39 109h325l101 276h-353l35 107h354l173 483h127z" />
    <glyph glyph-name="dollar" unicode="$" horiz-adv-x="1157" 
d="M152 432l139.001 -0.00292969v-16c0 -94 24.167 -165.333 72.5 -214s118.833 -73 211.5 -73c88.667 0 158.667 24.167 210 72.5s77 113.5 77 195.5c0 130 -103 229 -309 297c-13.333 4.66699 -23.333 8 -30 10c-127.333 42 -215 90 -263 144s-72 127 -72 219
c0 97.333 30 181.5 90 252.5s136.667 112.5 230 124.5v213h143v-213c98.667 -11.333 176 -48.666 232 -111.999s86.667 -147.666 92 -252.999h-144v4c0 73.333 -22.167 132 -66.5 176s-103.166 66 -176.499 66c-79.333 0 -142.166 -22.667 -188.499 -68
s-69.5 -106 -69.5 -182c0 -106 94.667 -191.667 284 -257c39.333 -13.333 69.666 -24 90.999 -32c109.333 -40 187.166 -88.167 233.499 -144.5s69.5 -130.166 69.5 -221.499c0 -114.667 -32.833 -210.334 -98.5 -287.001s-151.834 -119.667 -258.501 -129v-246h-143v246
c-106.667 11.333 -192.667 56.333 -258 135s-98 176.334 -98 293.001z" />
    <glyph glyph-name="percent" unicode="%" horiz-adv-x="1796" 
d="M219 1124c0 -62.667 22.167 -116.167 66.5 -160.5s97.833 -66.5 160.5 -66.5s116 22 160 66s66 97.667 66 161s-21.833 116.833 -65.5 160.5s-97.167 65.5 -160.5 65.5s-117 -22 -161 -66s-66 -97.333 -66 -160zM90 1126c0 100 34.834 184.833 104.501 254.5
s154.5 104.5 254.5 104.5c99.333 0 184.166 -35 254.499 -105s105.5 -154.667 105.5 -254c0 -100 -35 -184.667 -105 -254s-155 -104 -255 -104c-100.667 0 -185.667 34.667 -255 104s-104 154 -104 254zM1229 1485h117l-779 -1514h-116zM1114 330
c0 -63.333 22.167 -117.165 66.5 -161.498s97.833 -66.5 160.5 -66.5c63.333 0 117.166 22.167 161.499 66.5s66.5 98.166 66.5 161.499c0 62 -22.167 115 -66.5 159s-98.166 66 -161.499 66s-117 -21.833 -161 -65.5s-66 -96.834 -66 -159.501zM987.001 330.001
c0 99.333 34.833 183.833 104.5 253.5s154.5 104.5 254.5 104.5c99.333 0 183.833 -34.833 253.5 -104.5s104.5 -154.167 104.5 -253.5c0 -100.667 -34.667 -185.667 -104 -255s-154 -104 -254 -104c-100.667 0 -185.667 34.667 -255 104s-104 154.333 -104 255z" />
    <glyph glyph-name="ampersand" unicode="&#x26;" horiz-adv-x="1421" 
d="M555 883c75.333 29.333 131.668 66.002 169.001 110.002s56 95.333 56 154c0 56.667 -18.833 104.667 -56.5 144s-82.834 59 -135.501 59c-59.333 0 -107.666 -19.333 -144.999 -58s-56 -89.667 -56 -153c0 -44.667 12.167 -85.834 36.5 -123.501
s68.166 -81.834 131.499 -132.501zM889.002 371.002l-387 360c-72 -35.333 -126.833 -80.5 -164.5 -135.5s-56.5 -116.833 -56.5 -185.5c0 -87.333 26.167 -158.333 78.5 -213s119.5 -82 201.5 -82c63.333 0 121.5 20.667 174.5 62s104.167 106 153.5 194zM993.002 276.002
c-44.667 -98 -105 -173.334 -181 -226.001s-162.333 -79 -259 -79c-116.667 0 -216.5 42.667 -299.5 128s-124.5 189 -124.5 311c0 87.333 25 168.666 75 243.999s117.333 132.333 202 171c-64.667 57.333 -108.834 109 -132.501 155s-35.5 99.667 -35.5 161
c0 94.667 34.167 175.334 102.5 242.001s152.833 100 253.5 100c90.667 0 169.334 -34.167 236.001 -102.5s100 -148.166 100 -239.499c0 -74 -24 -141.5 -72 -202.5s-117 -111.167 -207 -150.5l295 -272l172 453h156l-219 -555l325 -299l-90 -107z" />
    <glyph glyph-name="quotesingle" unicode="'" horiz-adv-x="295" 
d="M199 1434v-553h-101v553h101z" />
    <glyph glyph-name="parenleft" unicode="(" horiz-adv-x="650" 
d="M775 -190c-212.667 109.333 -368.001 239.001 -466.001 389.001c-102.667 154 -154 337.333 -154 550c0 210.667 50.333 394 151 550c98 152 254.333 284.333 469 397v-175c-153.333 -80.667 -269.666 -186 -348.999 -316c-81.333 -134.667 -122 -282.334 -122 -443.001
c0 -177.333 37 -327 111 -449c72 -126 192 -235.333 360 -328v-175z" />
    <glyph glyph-name="parenright" unicode=")" horiz-adv-x="650" 
d="M-28 -15c160.667 91.333 280.001 200 358.001 326c74 123.333 111 273.666 111 450.999c0 164.667 -40.667 312.334 -122 443.001s-197 236 -347 316v175c206 -110.667 361.333 -243 466 -397c101.333 -154.667 152 -338 152 -550c0 -212.667 -51.333 -396 -154 -550
c-100.667 -149.333 -255.334 -279 -464.001 -389v175z" />
    <glyph glyph-name="asterisk" unicode="*" 
d="M510 981l-182 -264l-107 74l201 251l-297 86l37 119l291 -96v305h114v-305l289 96l41 -119l-301 -86l205 -251l-105 -74z" />
    <glyph glyph-name="plus" unicode="+" horiz-adv-x="1706" 
d="M903 1221v-562h549v-98h-549v-561h-98v561h-551v98h551v562h98z" />
    <glyph glyph-name="comma" unicode="," horiz-adv-x="578" 
d="M248 -162h-144l156 428h143z" />
    <glyph glyph-name="hyphen" unicode="-" horiz-adv-x="659" 
d="M563 616v-133h-469v133h469z" />
    <glyph glyph-name="period" unicode="." horiz-adv-x="578" 
d="M360 0h-143v266h143v-266z" />
    <glyph glyph-name="slash" unicode="/" horiz-adv-x="569" 
d="M72 -190h-121l498 1646h120z" />
    <glyph glyph-name="zero" unicode="0" horiz-adv-x="1157" 
d="M227 481c0 -120.667 31 -214.667 93 -282s148 -101 258 -101c109.333 0 195 33.333 257 100s93 159.667 93 279v502c0 118.667 -31.167 211.5 -93.5 278.5s-147.833 100.5 -256.5 100.5c-110 0 -196 -33.833 -258 -101.5s-93 -162.167 -93 -283.5v-492zM86 512
l-0.00195312 432c0 94 6.66699 164.833 20 212.5s35.333 92.167 66 133.5c48 63.333 106.833 112 176.5 146s146.167 51 229.5 51c152.667 0 273 -47.333 361 -142s132 -225.667 132 -393v-446c0 -78.667 -6.33301 -143.834 -19 -195.501s-33 -97.167 -61 -136.5
c-46 -64.667 -105 -114.667 -177 -150s-150.667 -53 -236 -53c-83.333 0 -159.666 16.833 -228.999 50.5s-129 82.5 -179 146.5c-29.333 37.333 -50.666 82.833 -63.999 136.5s-20 122.834 -20 207.501z" />
    <glyph glyph-name="one" unicode="1" horiz-adv-x="1157" 
d="M676 0h-152v1331h-254v125h406v-1456z" />
    <glyph glyph-name="two" unicode="2" horiz-adv-x="1157" 
d="M1036 0l-902.998 0.000976562v141l516 490c102 96.667 169.5 173 202.5 229s49.5 114 49.5 174c0 91.333 -29.833 167.833 -89.5 229.5s-135.5 92.5 -227.5 92.5c-94.667 0 -170.334 -31.5 -227.001 -94.5s-85 -146.833 -85 -251.5c0 -5.33301 0.333008 -12.333 1 -21
s1 -15.334 1 -20.001h-141v22c0 146.667 43.167 266 129.5 358s197.5 138 333.5 138c123.333 0 228.166 -44.5 314.499 -133.5s129.5 -198.833 129.5 -329.5c0 -75.333 -18.167 -147.5 -54.5 -216.5s-93.833 -140.167 -172.5 -213.5l-491 -453h714v-141z" />
    <glyph glyph-name="three" unicode="3" horiz-adv-x="1157" 
d="M254 442l-0.00195312 -12.001c0 -96 29.833 -175.667 89.5 -239s133.5 -95 221.5 -95c95.333 0 173.833 31.5 235.5 94.5s92.5 143.5 92.5 241.5c0 111.333 -32.667 195.833 -98 253.5s-161 86.5 -287 86.5c-18 0 -31.833 -0.166992 -41.5 -0.5
s-18.167 -0.833008 -25.5 -1.5v121c7.33301 -0.666992 15.333 -1.16699 24 -1.5s21.667 -0.5 39 -0.5c96 0 168.167 19.833 216.5 59.5s72.5 98.834 72.5 177.501c0 68 -20.667 124 -62 168s-93.333 66 -156 66c-71.333 0 -127.333 -21.5 -168 -64.5
s-61.667 -103.167 -63 -180.5h-133c6 113.333 42.333 203.333 109 270s154 100 262 100c99.333 0 183.833 -35.5 253.5 -106.5s104.5 -155.167 104.5 -252.5c0 -58 -11.167 -108.5 -33.5 -151.5s-58.166 -82.5 -107.499 -118.5c79.333 -42 139 -97.167 179 -165.5
s60 -149.833 60 -244.5c0 -134 -44.167 -246.667 -132.5 -338s-199.166 -137 -332.499 -137c-142 0 -254.333 42 -337 126s-125 199 -127 345h145z" />
    <glyph glyph-name="four" unicode="4" horiz-adv-x="1157" 
d="M774 408l6 880l-542 -880h536zM911 0h-141v281h-682v127l660 1048h163v-1048h158v-127h-158v-281z" />
    <glyph glyph-name="five" unicode="5" horiz-adv-x="1157" 
d="M84 442l145.001 0.000976562c5.33301 -94.667 42.333 -175 111 -241s148.667 -99 240 -99c98 0 180.833 36.833 248.5 110.5s101.5 164.5 101.5 272.5c0 109.333 -33.833 197.833 -101.5 265.5s-156.167 101.5 -265.5 101.5c-62 0 -118 -13.833 -168 -41.5
s-94.333 -69.834 -133 -126.501l-110 51l129 721h657v-143h-535l-73 -406c42 30 83.5 51.833 124.5 65.5s85.5 20.5 133.5 20.5c142 0 258.333 -48 349 -144s136 -218.667 136 -368c0 -141.333 -48.5 -261.666 -145.5 -360.999s-214.5 -149 -352.5 -149
c-131.333 0 -243.333 44.167 -336 132.5s-144.334 201.166 -155.001 338.499z" />
    <glyph glyph-name="six" unicode="6" horiz-adv-x="1157" 
d="M586 825c-100 0 -183.832 -34.668 -251.499 -104.001s-101.5 -154.666 -101.5 -255.999c0 -102.667 34.667 -189.5 104 -260.5s153 -106.5 251 -106.5c95.333 0 175.166 34.333 239.499 103s96.5 156 96.5 262c0 105.333 -31.833 192 -95.5 260s-144.5 102 -242.5 102z
M621.001 1456l178 0.000976562l-340 -526c31.333 7.33301 60 12.833 86 16.5s49.667 5.5 71 5.5c132 0 241.167 -46 327.5 -138s129.5 -207.667 129.5 -347c0 -142.667 -47 -261 -141 -355s-213 -141 -357 -141c-141.333 0 -258.5 46.167 -351.5 138.5
s-139.5 206.166 -139.5 341.499c0 116 60 266.667 180 452l27 41z" />
    <glyph glyph-name="seven" unicode="7" horiz-adv-x="1157" 
d="M426 0h-160l576 1313h-637v143h803v-131z" />
    <glyph glyph-name="eight" unicode="8" horiz-adv-x="1157" 
d="M322 1122c0 -72 22.832 -130.499 68.499 -175.499s105.167 -67.5 178.5 -67.5c87.333 0 154.333 20.5 201 61.5s70 100.167 70 177.5c0 70 -24.167 127.167 -72.5 171.5s-110.166 66.5 -185.499 66.5c-74 0 -135.833 -22.333 -185.5 -67s-74.5 -100.334 -74.5 -167.001z
M257.999 418.001c0 -92.667 30.167 -169.499 90.5 -230.499s133.833 -91.5 220.5 -91.5c95.333 0 173.833 31 235.5 93s92.5 140.333 92.5 235c0 97.333 -29 175.666 -87 234.999s-134.667 89 -230 89c-99.333 0 -177.833 -29.5 -235.5 -88.5s-86.5 -139.5 -86.5 -241.5z
M333.999 813.002c-51.333 34 -90.1689 75.167 -116.502 123.5s-39.5 102.833 -39.5 163.5c0 104 38.833 194.167 116.5 270.5s171.167 114.5 280.5 114.5c114 0 209.833 -37 287.5 -111s116.5 -162 116.5 -264c0 -66.667 -13.167 -124.167 -39.5 -172.5
s-67.166 -89.833 -122.499 -124.5c76.667 -43.333 133.667 -95.166 171 -155.499s56 -131.5 56 -213.5c0 -137.333 -44.167 -250.5 -132.5 -339.5s-202.5 -133.5 -342.5 -133.5c-127.333 0 -235.166 44.833 -323.499 134.5s-132.5 199.167 -132.5 328.5
c0 83.333 17.167 154.666 51.5 213.999s90.833 114.333 169.5 165z" />
    <glyph glyph-name="nine" unicode="9" horiz-adv-x="1157" 
d="M571 633c100 0 183.832 34.668 251.499 104.001s101.5 154.666 101.5 255.999c0 102.667 -34.5 189.167 -103.5 259.5s-152.833 105.5 -251.5 105.5c-95.333 0 -175.166 -34 -239.499 -102s-96.5 -155 -96.5 -261c0 -105.333 31.833 -192 95.5 -260
s144.5 -102 242.5 -102zM536.999 0.000976562l-179 0.000976562l340 528c-31.333 -7.33301 -60 -12.833 -86 -16.5s-49.667 -5.5 -71 -5.5c-132 0 -241.167 46 -327.5 138s-129.5 207.667 -129.5 347c0 143.333 46.667 261.833 140 355.5s212 140.5 356 140.5
c141.333 0 258.833 -46.167 352.5 -138.5s140.5 -205.833 140.5 -340.5c0 -116.667 -60 -267.334 -180 -452.001l-26 -41z" />
    <glyph glyph-name="colon" unicode=":" horiz-adv-x="588" 
d="M365 834h-142v266h142v-266zM365 0h-142v266h142v-266z" />
    <glyph glyph-name="semicolon" unicode=";" horiz-adv-x="588" 
d="M248 -162h-144l156 428h143zM365 1100v-266h-142v266h142z" />
    <glyph glyph-name="less" unicode="&#x3c;" horiz-adv-x="1706" 
d="M1442 1026l-1022 -416l1022 -413v-109l-1178 481v82l1178 484v-109z" />
    <glyph glyph-name="equal" unicode="=" horiz-adv-x="1706" 
d="M1452 473v-98h-1198v98h1198zM1452 846v-98h-1198v98h1198z" />
    <glyph glyph-name="greater" unicode="&#x3e;" horiz-adv-x="1706" 
d="M1442 651v-82l-1178 -481v109l1022 413l-1022 416v109z" />
    <glyph glyph-name="question" unicode="?" horiz-adv-x="948" 
d="M547 398l-143.999 -0.998047c0 62.667 13 123.667 39 183s64.333 116.666 115 171.999c12 12.667 30 30.334 54 53.001c84 79.333 126 163.333 126 252c0 86.667 -23.5 154.667 -70.5 204s-111.5 74 -193.5 74c-86.667 0 -154 -27.667 -202 -83s-74 -135.333 -78 -240
h-148c2 142.667 42.833 257.167 122.5 343.5s184.167 129.5 313.5 129.5c120.667 0 218.834 -40 294.501 -120s113.5 -183.333 113.5 -310c0 -124.667 -55.333 -236.334 -166 -335.001l-25 -22c-54.667 -50.667 -93.334 -98.834 -116.001 -144.501
s-34.334 -97.5 -35.001 -155.5zM403.001 0.00195312v266h144v-266h-144z" />
    <glyph glyph-name="at" unicode="@" horiz-adv-x="2048" 
d="M1298 836l60.001 124.997h94l-139 -562c-6.66699 -29.333 -11.167 -50.166 -13.5 -62.499s-3.5 -22.166 -3.5 -29.499c0 -28.667 9.5 -51.167 28.5 -67.5s45.167 -24.5 78.5 -24.5c34.667 0 70.167 7 106.5 21s71.166 34.333 104.499 61
c64.667 51.333 115 119.5 151 204.5s54 179.167 54 282.5c0 169.333 -66 308.333 -198 417s-301.667 163 -509 163c-116.667 0 -223.334 -16.5 -320.001 -49.5s-184 -82.833 -262 -149.5c-98 -84 -172 -180.833 -222 -290.5s-75 -230.5 -75 -362.5
c0 -116 20 -217.667 60 -305s101.333 -164.666 184 -231.999c68 -54.667 149.333 -97.334 244 -128.001s195 -46 301 -46c114 0 225.5 16.5 334.5 49.5s209.167 80.833 300.5 143.5l39 -55c-98 -74 -201.667 -129.5 -311 -166.5s-223.666 -55.5 -342.999 -55.5
c-127.333 0 -243 15.5 -347 46.5s-195.667 77.167 -275 138.5c-103.333 78.667 -179.666 169.834 -228.999 273.501s-74 224.167 -74 361.5c0 136 28.667 263.167 86 381.5s141.333 223.166 252 314.499c88 72.667 187.5 127.667 298.5 165s231.167 56 360.5 56
c108 0 210.667 -14.667 308 -44s180.333 -70.666 249 -123.999c86 -66 150.833 -142 194.5 -228s65.5 -179.333 65.5 -280c0 -114 -20.667 -217.167 -62 -309.5s-101.666 -169.833 -180.999 -232.5c-46.667 -36 -96.334 -63.5 -149.001 -82.5s-106.334 -28.5 -161.001 -28.5
c-64.667 0 -112.834 12.5 -144.501 37.5s-47.5 62.833 -47.5 113.5c0 2.66699 0.333008 7.33398 1 14.001s1 11.667 1 15c-34 -58 -76.333 -102.5 -127 -133.5s-106.667 -46.5 -168 -46.5c-102 0 -179.667 27.833 -233 83.5s-80 137.167 -80 244.5
c0 153.333 45 282.666 135 387.999s199.667 158 329 158c62.667 0 115.334 -13.667 158.001 -41s74.667 -68 96 -122zM1210 468.997l61.999 248c-12 62 -37.167 110.5 -75.5 145.5s-84.833 52.5 -139.5 52.5c-102.667 0 -187.5 -44.5 -254.5 -133.5
s-100.5 -201.5 -100.5 -337.5c0 -74 18.333 -131.667 55 -173s87.334 -62 152.001 -62c71.333 0 134.5 23.833 189.5 71.5s92.167 110.5 111.5 188.5z" />
    <glyph glyph-name="A" unicode="A" horiz-adv-x="1223" 
d="M100 0h-151l565 1456h172l563 -1456h-153l-174 457h-648zM872 588l-276 731l-272 -731h548z" />
    <glyph glyph-name="B" unicode="B" horiz-adv-x="1042" 
d="M272 688v-549.002h201c118 0 205.167 22.333 261.5 67s84.5 113.334 84.5 206.001s-28.667 161.834 -86 207.501s-144 68.5 -260 68.5h-201zM272 1317l0.000976562 -489.999h86c141.333 0 240.166 19.5 296.499 58.5s84.5 102.833 84.5 191.5
c0 83.333 -27.333 144.166 -82 182.499s-142 57.5 -262 57.5h-123zM135.001 1456h271c164.667 0 285.667 -31.167 363 -93.5s116 -159.5 116 -291.5c0 -66.667 -13 -123.667 -39 -171s-65 -86 -117 -116c78.667 -32.667 137.667 -78.5 177 -137.5s59 -131.167 59 -216.5
c0 -148 -40.833 -256.667 -122.5 -326s-210.167 -104 -385.5 -104h-322v1456z" />
    <glyph glyph-name="C" unicode="C" horiz-adv-x="1540" 
d="M1296 1079c-65.333 90.667 -138.333 157.334 -219 200.001s-172.667 64 -276 64c-162 0 -300.5 -60 -415.5 -180s-172.5 -262.667 -172.5 -428c0 -176 57.167 -324.333 171.5 -445s253.166 -181 416.499 -181c100.667 0 191.667 21 273 63s152 104.667 212 188h170
c-66.667 -124 -156 -219.833 -268 -287.5s-237.667 -101.5 -377 -101.5c-214 0 -392.5 73 -535.5 219s-214.5 328.333 -214.5 547c0 102 19.333 198.667 58 290s95.334 173.666 170.001 246.999c69.333 69.333 147.166 121.833 233.499 157.5s179.833 53.5 280.5 53.5
c144.667 0 274.834 -35.333 390.501 -106s207.167 -170.667 274.5 -300h-172z" />
    <glyph glyph-name="D" unicode="D" horiz-adv-x="1366" 
d="M276 1317v-1180h297c185.333 0 328 52 428 156s150 251.333 150 442c0 95.333 -17 183.333 -51 264s-82.667 148.334 -146 203.001c-47.333 41.333 -100.333 70.833 -159 88.5s-144 26.5 -256 26.5h-263zM135 1456l414 0.000976562c114 0 209.833 -11.333 287.5 -34
s146.167 -59 205.5 -109c83.333 -70 148 -155.667 194 -257s69 -209.666 69 -324.999c0 -128.667 -25.333 -245.834 -76 -351.501s-122.334 -191.834 -215.001 -258.501c-61.333 -43.333 -127.666 -74.333 -198.999 -93s-181.333 -28 -330 -28h-350v1456z" />
    <glyph glyph-name="E" unicode="E" horiz-adv-x="1028" 
d="M279 803h612v-144h-612v-518h612v-141h-756v1456h756v-143h-612v-510z" />
    <glyph glyph-name="F" unicode="F" horiz-adv-x="991" 
d="M135 0v1456h719v-143h-578v-510h578v-144h-578v-659h-141z" />
    <glyph glyph-name="G" unicode="G" horiz-adv-x="1612" 
d="M643 698l905.002 0.000976562c-12 -212 -88.333 -386.167 -229 -522.5s-313.334 -204.5 -518.001 -204.5c-210 0 -385.833 73.333 -527.5 220s-212.5 328.667 -212.5 546c0 102 19.333 198.667 58 290s95.334 173.666 170.001 246.999c72 71.333 151.667 124.333 239 159
s184.333 52 291 52c141.333 0 268.166 -34.167 380.499 -102.5s202.5 -165.833 270.5 -292.5h-176c-68.667 87.333 -142.167 151.833 -220.5 193.5s-165.833 62.5 -262.5 62.5c-167.333 0 -308.833 -59.833 -424.5 -179.5s-173.5 -263.5 -173.5 -431.5
c0 -178.667 57.667 -327.667 173 -447s257.666 -179 426.999 -179c133.333 0 252.833 42.667 358.5 128s174.5 196 206.5 332h-735v129z" />
    <glyph glyph-name="H" unicode="H" horiz-adv-x="1251" 
d="M279 0h-144v1456h144v-653h692v653h143v-1456h-143v664h-692v-664z" />
    <glyph glyph-name="I" unicode="I" horiz-adv-x="412" 
d="M276 0h-143v1456h143v-1456z" />
    <glyph glyph-name="J" unicode="J" horiz-adv-x="915" 
d="M641 1456h143v-981c0 -85.333 -4.5 -152 -13.5 -200s-24.167 -89.667 -45.5 -125c-33.333 -57.333 -79.5 -101.833 -138.5 -133.5s-124.833 -47.5 -197.5 -47.5c-108.667 0 -196.167 35.167 -262.5 105.5s-99.5 163.5 -99.5 279.5h143c4 -72 27.167 -130.167 69.5 -174.5
s94.833 -66.5 157.5 -66.5c88.667 0 151.5 28.167 188.5 84.5s55.5 168.833 55.5 337.5v921z" />
    <glyph glyph-name="K" unicode="K" horiz-adv-x="1100" 
d="M274 449v-449h-141v1456h141v-809l674 809h170l-588 -704l578 -752h-176l-494 645z" />
    <glyph glyph-name="L" unicode="L" horiz-adv-x="844" 
d="M791 0h-656v1456h144v-1315h512v-141z" />
    <glyph glyph-name="M" unicode="M" horiz-adv-x="1692" 
d="M143 0v1456h211l504 -1266l502 1266h211v-1456h-137v1286l-512 -1286h-129l-512 1286v-1286h-138z" />
    <glyph glyph-name="N" unicode="N" horiz-adv-x="1366" 
d="M1102 174l-17 1282h142v-1456h-172l-799 1284l16 -1284h-141v1456h172z" />
    <glyph glyph-name="O" unicode="O" horiz-adv-x="1612" 
d="M211 735c0 -177.333 57.666 -325.997 172.999 -445.997s257.666 -180 426.999 -180c165.333 0 305 60.667 419 182s171 270.666 171 447.999c0 165.333 -58.667 307.833 -176 427.5s-258.666 179.5 -423.999 179.5c-67.333 0 -132.166 -11.5 -194.499 -34.5
s-119.833 -56.833 -172.5 -101.5c-69.333 -58.667 -123.833 -130.334 -163.5 -215.001s-59.5 -171.334 -59.5 -260.001zM60.999 737.003c0 101.333 19.499 197.999 58.499 289.999s95.5 174.333 169.5 247c71.333 70 149.833 122.667 235.5 158s178.5 53 278.5 53
c102 0 196.5 -17.833 283.5 -53.5s166.5 -88.834 238.5 -159.501c74 -72.667 129.667 -154 167 -244s56 -187 56 -291c0 -103.333 -16 -198.166 -48 -284.499s-80 -164.833 -144 -235.5c-74 -81.333 -157.667 -142.666 -251 -183.999s-194.666 -62 -303.999 -62
c-209.333 0 -385 73.5 -527 220.5s-213 328.833 -213 545.5z" />
    <glyph glyph-name="P" unicode="P" horiz-adv-x="1034" 
d="M262 1313v-555h211c117.333 0 204 22.333 260 67s84 113.667 84 207c0 97.333 -28.167 168.5 -84.5 213.5s-146.833 67.5 -271.5 67.5h-199zM119 1456h309.002c88.667 0 159.667 -4.66699 213 -14s97.666 -24.333 132.999 -45c64 -38.667 113.167 -88.834 147.5 -150.501
s51.5 -131.167 51.5 -208.5c0 -73.333 -15.5 -141.166 -46.5 -203.499s-74.167 -111.833 -129.5 -148.5c-38.667 -26 -84.834 -44.833 -138.501 -56.5s-122.167 -17.5 -205.5 -17.5h-191v-612h-143v1456z" />
    <glyph glyph-name="Q" unicode="Q" horiz-adv-x="1612" 
d="M1313 174c30 -20 63.499 -34.5 100.499 -43.5s81.167 -13.5 132.5 -13.5h19v-127c-3.33301 -0.666992 -7.66602 -1 -12.999 -1c-28.667 -2 -48.334 -3 -59.001 -3c-46 0 -94.833 8.83301 -146.5 26.5s-100.5 42.834 -146.5 75.501
c-59.333 -38.667 -122.166 -67.834 -188.499 -87.501s-135.833 -29.5 -208.5 -29.5c-208 0 -383.667 73.5 -527 220.5s-215 328.833 -215 545.5c0 101.333 19.5 198 58.5 290s95.5 174.333 169.5 247c71.333 70 149.833 122.667 235.5 158s178.5 53 278.5 53
c214 0 391.667 -72.667 533 -218s212 -330 212 -554c0 -108 -19.333 -206.167 -58 -294.5s-97.667 -169.833 -177 -244.5zM1202 264c64.667 64.667 113.999 137.501 147.999 218.501s51 166.5 51 256.5c0 165.333 -58.667 307.833 -176 427.5s-258.666 179.5 -423.999 179.5
c-160 0 -298.333 -60.333 -415 -181s-175 -261.334 -175 -422.001c0 -31.333 2 -62.5 6 -93.5s10.333 -62.5 19 -94.5c52 24.667 103 42.834 153 54.501s102.667 17.5 158 17.5c114 0 219.167 -25.833 315.5 -77.5s209.5 -146.834 339.5 -285.501zM1085 178.001
c-122.667 128 -221.836 211.833 -297.503 251.5s-160.834 59.5 -255.501 59.5c-38 0 -76.833 -5 -116.5 -15s-83.167 -26 -130.5 -48c54.667 -100 128.834 -178.333 222.501 -235s194.834 -85 303.501 -85c44.667 0 89.334 6 134.001 18s91.334 30 140.001 54z" />
    <glyph glyph-name="R" unicode="R" horiz-adv-x="1139" 
d="M256 1313v-1313h-141v1456h391c86 0 155.167 -6.5 207.5 -19.5s99.833 -34.5 142.5 -64.5c58 -40.667 103.833 -95 137.5 -163s50.5 -140 50.5 -216c0 -112.667 -33.5 -209.667 -100.5 -291s-150.833 -125.666 -251.5 -132.999l352 -569h-170l-432 702h138
c92 0 166.833 27 224.5 81s86.5 123.333 86.5 208c0 51.333 -8.83301 98 -26.5 140s-43.834 78.667 -78.501 110c-28.667 26 -63.167 44.5 -103.5 55.5s-112.166 16.5 -215.499 16.5h-211z" />
    <glyph glyph-name="S" unicode="S" horiz-adv-x="952" 
d="M58 416h137.997c2.66699 -90 28.167 -161.667 76.5 -215s111.833 -80 190.5 -80c84.667 0 151.834 26.5 201.501 79.5s74.5 124.833 74.5 215.5c0 132 -102 231.667 -306 299l-36 12c-106.667 36.667 -183.5 83.167 -230.5 139.5s-70.5 129.833 -70.5 220.5
c0 116 36.167 211 108.5 285s165.833 111 280.5 111c109.333 0 196 -33.667 260 -101s99.667 -162 107 -284h-135c-7.33301 79.333 -31 140.5 -71 183.5s-93.667 64.5 -161 64.5c-72 0 -130.833 -23.5 -176.5 -70.5s-68.5 -106.833 -68.5 -179.5
c0 -38 6.83301 -70.833 20.5 -98.5s35.5 -52.834 65.5 -75.501c30.667 -22.667 89.334 -48 176.001 -76c50 -16 88 -29 114 -39c94.667 -36.667 162.834 -83.5 204.501 -140.5s62.5 -131.833 62.5 -224.5c0 -141.333 -38.5 -255.166 -115.5 -341.499
s-179.167 -129.5 -306.5 -129.5c-118.667 0 -215 40.833 -289 122.5s-112 189.167 -114 322.5z" />
    <glyph glyph-name="T" unicode="T" horiz-adv-x="750" 
d="M446 0h-143v1313h-291v143h725v-143h-291v-1313z" />
    <glyph glyph-name="U" unicode="U" horiz-adv-x="1157" 
d="M113 1456l143.001 -0.00292969v-921c0 -71.333 2.83301 -124.666 8.5 -159.999s15.167 -66.666 28.5 -93.999c26 -55.333 64.167 -98.666 114.5 -129.999s107.166 -47 170.499 -47c110 0 191.333 37.5 244 112.5s79 191.167 79 348.5v891h141v-926
c0 -188.667 -37.5 -329.334 -112.5 -422.001s-188.833 -139 -341.5 -139c-163.333 0 -283.333 45.333 -360 136s-115 232.334 -115 425.001v926z" />
    <glyph glyph-name="V" unicode="V" horiz-adv-x="1139" 
d="M-41 1456h143l461 -1241l463 1241h143l-548 -1456h-113z" />
    <glyph glyph-name="W" unicode="W" horiz-adv-x="1665" 
d="M899 1456l293 -1194l364 1194h140l-451 -1456h-119l-292 1188l-293 -1188h-119l-453 1456h142l362 -1194l295 1194h131z" />
    <glyph glyph-name="X" unicode="X" horiz-adv-x="1165" 
d="M170 0h-176l506 733l-494 723h178l400 -604l399 604h176l-493 -723l505 -733h-180l-407 618z" />
    <glyph glyph-name="Y" unicode="Y" horiz-adv-x="981" 
d="M557 535v-535h-141v537l-465 919h164l372 -756l377 756h160z" />
    <glyph glyph-name="Z" unicode="Z" horiz-adv-x="938" 
d="M719 1313h-639v143h805v-137l-682 -1178h696v-141h-860v137z" />
    <glyph glyph-name="bracketleft" unicode="[" horiz-adv-x="420" 
d="M440 1526v-165.999c-61.333 -49.333 -105 -108 -131 -176s-39 -171.667 -39 -311v-675c0 -138.667 13 -242 39 -310c25.333 -66 69 -124.667 131 -176v-165c-106 56 -185 136 -237 240c-52 103.333 -78 232 -78 386v725c0 154 26 283 78 387
c51.333 103.333 130.333 183.666 237 240.999z" />
    <glyph glyph-name="backslash" unicode="\" horiz-adv-x="569" 
d="M498 -190l-498 1646h119l499 -1646h-120z" />
    <glyph glyph-name="bracketright" unicode="]" horiz-adv-x="420" 
d="M72 1526c106 -57.333 185 -137.667 237 -241c52.667 -105.333 79 -234.333 79 -387v-725c0 -152.667 -26.333 -281.334 -79 -386.001c-52 -104 -131 -184 -237 -240v165c62 50.667 106 109.334 132 176.001c26 68 39 171.333 39 310v675c0 139.333 -13 243 -39 311
c-26.667 68 -70.667 126.667 -132 176v166z" />
    <glyph glyph-name="asciicircum" unicode="^" horiz-adv-x="2048" 
d="M1094 1458l530 -557h-143l-457 455l-459 -455h-143l532 557h140z" />
    <glyph glyph-name="underscore" unicode="_" 
d="M1024 -383v-100h-1024v100h1024z" />
    <glyph glyph-name="grave" unicode="`" 
d="M545 1247l-269 350h152l209 -350h-92z" />
    <glyph glyph-name="a" unicode="a" horiz-adv-x="1290" 
d="M1042 557c0 116.667 -41.667 218.5 -125 305.5s-179.333 130.5 -288 130.5c-118 0 -218.5 -43.5 -301.5 -130.5s-124.5 -194.833 -124.5 -323.5c0 -122.667 41.333 -226.167 124 -310.5s182 -126.5 298 -126.5c112 0 209.5 44.5 292.5 133.5s124.5 196.167 124.5 321.5z
M1042 174c-44 -63.333 -103.504 -113.001 -178.504 -149.001s-155.833 -54 -242.5 -54c-161.333 0 -295.666 55.167 -402.999 165.5s-161 246.5 -161 408.5c0 164.667 54.833 302.334 164.5 413.001s246.834 166 411.501 166c84.667 0 162.334 -17.167 233.001 -51.5
s129.334 -83.833 176.001 -148.5v176h138v-1100h-138v174z" />
    <glyph glyph-name="b" unicode="b" horiz-adv-x="1290" 
d="M248 1456l-0.000976562 -459v-82c59.333 71.333 124.333 124 195 158s149.667 51 237 51c154.667 0 285.5 -55.667 392.5 -167s160.5 -246.666 160.5 -405.999c0 -164.667 -54.667 -302.5 -164 -413.5s-246.666 -166.5 -411.999 -166.5
c-81.333 0 -155.833 16.167 -223.5 48.5s-129.5 81.166 -185.5 146.499v-166h-139v1456h139zM247.999 539c0 -117.333 41.5 -219.5 124.5 -306.5s178.5 -130.5 286.5 -130.5c118 0 218.5 43.667 301.5 131s124.5 195.333 124.5 324c0 122 -41.333 225.167 -124 309.5
s-181.667 126.5 -297 126.5s-213.5 -44 -294.5 -132s-121.5 -195.333 -121.5 -322z" />
    <glyph glyph-name="c" unicode="c" horiz-adv-x="1241" 
d="M993 762c-43.333 80 -96.166 139.166 -158.499 177.499s-136.5 57.5 -222.5 57.5c-113.333 0 -209.5 -43 -288.5 -129s-118.5 -192.333 -118.5 -319s39.667 -232.5 119 -317.5s177.333 -127.5 294 -127.5c85.333 0 160.666 21 225.999 63s115 101 149 177h156
c-42.667 -119.333 -109.667 -211.666 -201 -276.999s-199 -98 -323 -98c-159.333 0 -293.833 56.5 -403.5 169.5s-164.5 249.167 -164.5 408.5c0 162.667 55.5 300.5 166.5 413.5s246.167 169.5 405.5 169.5c119.333 0 224.5 -32.167 315.5 -96.5
s159.167 -154.833 204.5 -271.5h-156z" />
    <glyph glyph-name="d" unicode="d" horiz-adv-x="1290" 
d="M1042 539c0 125.333 -41.5 232.333 -124.5 321s-180.5 133 -292.5 133c-116 0 -215.333 -42.167 -298 -126.5s-124 -187.5 -124 -309.5c0 -128.667 41.5 -236.667 124.5 -324s183.5 -131 301.5 -131c108.667 0 204.667 43.667 288 131s125 189.333 125 306zM1038 926
l0.000976562 245.001v285h142v-1456h-142v166c-49.333 -61.333 -110.666 -109.166 -183.999 -143.499s-151 -51.5 -233 -51.5c-158.667 0 -292.334 56 -401.001 168s-163 249.333 -163 412c0 161.333 53.667 297.166 161 407.499s241.666 165.5 402.999 165.5
c86.667 0 165.5 -16.833 236.5 -50.5s131.167 -82.834 180.5 -147.501z" />
    <glyph glyph-name="e" unicode="e" horiz-adv-x="1241" 
d="M1192 506l-992.997 0.000976562c8.66699 -120 52 -217 130 -291s175.333 -111 292 -111c82.667 0 157 21.5 223 64.5s117 102.833 153 179.5h160c-50.667 -122 -121.834 -215.667 -213.501 -281s-197.834 -98 -318.501 -98c-160 0 -295.333 57 -406 171
s-166 251 -166 411c0 167.333 54.167 305.666 162.5 414.999s246.833 164 415.5 164c165.333 0 300.166 -56.833 404.499 -170.5s156.5 -261.5 156.5 -443.5v-10zM1036 625.001c-26.667 123.333 -75.667 216.167 -147 278.5s-164.333 93.5 -279 93.5
c-106.667 0 -197 -33.5 -271 -100.5s-119.333 -157.5 -136 -271.5h833z" />
    <glyph glyph-name="f" unicode="f" horiz-adv-x="563" 
d="M309 0l-137 -0.000976562v977h-147v123h141v30c0 116.667 29.5 203 88.5 259s149.5 84 271.5 84h13v-127c-84.667 -1.33301 -144.5 -18.166 -179.5 -50.499s-52.5 -87.5 -52.5 -165.5v-30h232v-123h-230v-977z" />
    <glyph glyph-name="g" unicode="g" horiz-adv-x="1280" 
d="M301 -90c21.333 -64 59.9971 -113.832 115.997 -149.499s124 -53.5 204 -53.5c125.333 0 225.833 41.667 301.5 125s113.5 194.666 113.5 333.999v29c-53.333 -72.667 -114 -127.5 -182 -164.5s-143 -55.5 -225 -55.5c-165.333 0 -302.666 55.167 -411.999 165.5
s-164 247.833 -164 412.5c0 162 54 298 162 408s241.667 165 401 165c92.667 0 172.834 -16.667 240.501 -50s127.5 -85.333 179.5 -156v180h138v-918c0 -192 -48.167 -342 -144.5 -450s-229.166 -162 -398.499 -162c-124.667 0 -231.667 30.833 -321 92.5
s-147 144.167 -173 247.5h164zM202.997 559.001c0 -128.667 40.833 -236.334 122.5 -323.001s180.167 -130 295.5 -130c108.667 0 204.667 43.5 288 130.5s125 189.167 125 306.5c0 125.333 -41 232.333 -123 321s-178.667 133 -290 133
c-114.667 0 -213 -42.167 -295 -126.5s-123 -188.166 -123 -311.499z" />
    <glyph glyph-name="h" unicode="h" horiz-adv-x="1143" 
d="M111 1456h138.999v-485c40.667 50 89.5 87.667 146.5 113s120.833 38 191.5 38c154.667 0 267.334 -44.167 338.001 -132.5s106 -231.833 106 -430.5v-559h-139v561c0 159.333 -24 270.166 -72 332.499s-128.333 93.5 -241 93.5c-64 0 -120.167 -12.833 -168.5 -38.5
s-86.5 -62.5 -114.5 -110.5c-17.333 -30 -29.5 -64.167 -36.5 -102.5s-10.5 -105.166 -10.5 -200.499v-535h-139v1456z" />
    <glyph glyph-name="i" unicode="i" horiz-adv-x="371" 
d="M256 1229h-141v227h141v-227zM115 0v1100h141v-1100h-141z" />
    <glyph glyph-name="j" unicode="j" horiz-adv-x="371" 
d="M256 1229h-141v227h141v-227zM256 1100l-0.000976562 -1104c0 -133.333 -18.5 -225 -55.5 -275s-100.5 -75 -190.5 -75h-30v131c52.667 0 88.334 9.83301 107.001 29.5s28 75.834 28 168.501v1125h141z" />
    <glyph glyph-name="k" unicode="k" horiz-adv-x="848" 
d="M256 0h-141v1456h141v-866l397 510h162l-399 -510l485 -590h-178l-467 573v-573z" />
    <glyph glyph-name="l" unicode="l" horiz-adv-x="371" 
d="M115 0v1456h141v-1456h-141z" />
    <glyph glyph-name="m" unicode="m" horiz-adv-x="1907" 
d="M977 928c44.667 63.333 100.168 111.498 166.501 144.498s140.5 49.5 222.5 49.5c149.333 0 258 -44.833 326 -134.5s102 -233.834 102 -432.501v-555h-135v584c0 145.333 -24 248.833 -72 310.5s-126.333 92.5 -235 92.5c-62.667 0 -117.834 -12.833 -165.501 -38.5
s-85.5 -62.5 -113.5 -110.5c-16.667 -30 -28.667 -64.167 -36 -102.5s-11 -105.166 -11 -200.499v-535h-133v616c0 126.667 -25.667 220.167 -77 280.5s-130 90.5 -236 90.5c-64 0 -120.167 -12.833 -168.5 -38.5s-86.5 -62.5 -114.5 -110.5
c-17.333 -30 -29.5 -64.167 -36.5 -102.5s-10.5 -105.166 -10.5 -200.499v-535h-139v1100h139v-125c42 48.667 91.5 85.334 148.5 110.001s121.5 37 193.5 37c83.333 0 159.333 -17.5 228 -52.5s121 -82.167 157 -141.5z" />
    <glyph glyph-name="n" unicode="n" horiz-adv-x="1143" 
d="M113 1100l137 -0.000976562v-125c43.333 50 93.5 87 150.5 111s122.167 36 195.5 36c80.667 0 152.5 -15 215.5 -45s112.833 -73 149.5 -129c25.333 -39.333 43.5 -85.5 54.5 -138.5s16.5 -131.167 16.5 -234.5v-575h-139v616c0 130 -24.833 224.333 -74.5 283
s-129.167 88 -238.5 88c-64 0 -120.167 -12.833 -168.5 -38.5s-86.5 -62.5 -114.5 -110.5c-17.333 -30 -29.5 -64.167 -36.5 -102.5s-10.5 -105.166 -10.5 -200.499v-535h-137v1100z" />
    <glyph glyph-name="o" unicode="o" horiz-adv-x="1241" 
d="M201 551c0 -126.667 40.333 -232.833 121 -318.5s181 -128.5 301 -128.5c118 0 217 42.833 297 128.5s120 192.5 120 320.5c0 130 -40.5 236.833 -121.5 320.5s-183.833 125.5 -308.5 125.5c-112 0 -208.167 -43 -288.5 -129s-120.5 -192.333 -120.5 -319zM53 549.001
c0 161.333 55.333 299.333 166 414s241.667 172 393 172c159.333 0 295.166 -56.333 407.499 -169s168.5 -247 168.5 -403c0 -164 -55 -304 -165 -420s-243.333 -174 -400 -174c-159.333 0 -294.166 56.833 -404.499 170.5s-165.5 250.167 -165.5 409.5z" />
    <glyph glyph-name="p" unicode="p" horiz-adv-x="1290" 
d="M109 1100l139 -0.000976562v-180c40 62 97.167 111.5 171.5 148.5s153.5 55.5 237.5 55.5c166 0 303.5 -55.167 412.5 -165.5s163.5 -248.166 163.5 -413.499c0 -161.333 -53.833 -297.333 -161.5 -408s-242.167 -166 -403.5 -166c-89.333 0 -169.833 17.333 -241.5 52
s-131.167 85 -178.5 151v-76v-164v-290h-139v1456zM248 556.999c0 -125.333 41.334 -232.5 124.001 -321.5s180 -133.5 292 -133.5c115.333 0 214.333 42.167 297 126.5s124 187.833 124 310.5c0 128.667 -41.5 236.5 -124.5 323.5s-183.5 130.5 -301.5 130.5
c-108.667 0 -204.334 -43.667 -287.001 -131s-124 -189 -124 -305z" />
    <glyph glyph-name="q" unicode="q" horiz-adv-x="1290" 
d="M1038 1100l141.999 -0.000976562v-1456h-142v522c-46.667 -62 -106.334 -110 -179.001 -144s-152 -51 -238 -51c-161.333 0 -295.666 55.167 -402.999 165.5s-161 246.5 -161 408.5c0 164.667 54.833 302.334 164.5 413.001s246.834 166 411.501 166
c83.333 0 159.833 -17.167 229.5 -51.5s128.167 -83.833 175.5 -148.5v176zM1042 556.999c0 116.667 -41.667 218.5 -125 305.5s-179.333 130.5 -288 130.5c-118 0 -218.5 -43.5 -301.5 -130.5s-124.5 -194.833 -124.5 -323.5c0 -122.667 41.333 -226.167 124 -310.5
s182 -126.5 298 -126.5c112 0 209.5 44.5 292.5 133.5s124.5 196.167 124.5 321.5z" />
    <glyph glyph-name="r" unicode="r" horiz-adv-x="512" 
d="M254 0l-143 -0.000976562v1100h133v-127c34.667 48.667 72.5 84.334 113.5 107.001s88.833 34.667 143.5 36l1 -153c-88.667 -8 -152.167 -34.5 -190.5 -79.5s-57.5 -118.167 -57.5 -219.5v-664z" />
    <glyph glyph-name="s" unicode="s" horiz-adv-x="797" 
d="M43 346l145 -0.00292969v-4c0 -68.667 19.667 -125.5 59 -170.5s88 -67.5 146 -67.5c55.333 0 101.333 17.333 138 52s55 78.334 55 131.001s-14.5 95 -43.5 127s-81.5 62 -157.5 90c-122 43.333 -201.667 87.666 -239 132.999s-56 106 -56 182c0 86 31.167 159 93.5 219
s137.833 90 226.5 90c94 0 168.667 -26.667 224 -80s85 -127.666 89 -222.999h-151c-3.33301 52 -19.833 92.333 -49.5 121s-70.167 43 -121.5 43c-46 0 -84.333 -15.5 -115 -46.5s-46 -69.5 -46 -115.5c0 -32.667 6.33301 -60.167 19 -82.5s33.667 -42.5 63 -60.5
c26.667 -16.667 65.5 -32.667 116.5 -48s85.167 -26.666 102.5 -33.999c68.667 -29.333 119.167 -68.333 151.5 -117s48.5 -110.667 48.5 -186c0 -94.667 -33 -173 -99 -235s-149.667 -93 -251 -93c-103.333 0 -186.333 33.833 -249 101.5s-95.667 158.834 -99 273.501z" />
    <glyph glyph-name="t" unicode="t" horiz-adv-x="559" 
d="M209 0v958h-209v142h209v356h141v-356h209v-142h-209v-958h-141z" />
    <glyph glyph-name="u" unicode="u" horiz-adv-x="1143" 
d="M109 1100l139.002 -0.00195312v-584c0 -150 24.333 -256.167 73 -318.5s128.667 -93.5 240 -93.5c63.333 0 119 12.833 167 38.5s86.667 62.834 116 111.501c16.667 28.667 28.667 62.5 36 101.5s11 106.833 11 203.5v541h141v-1100h-141v119
c-42.667 -52 -90.334 -89.667 -143.001 -113s-116.334 -35 -191.001 -35c-158.667 0 -273 42.833 -343 128.5s-105 227.834 -105 426.501v574z" />
    <glyph glyph-name="v" unicode="v" horiz-adv-x="977" 
d="M543 0h-129l-430 1100h149l352 -887l355 887h153z" />
    <glyph glyph-name="w" unicode="w" horiz-adv-x="1421" 
d="M1016 276l266 824h150l-371 -1100h-92l-258 838l-254 -838h-92l-371 1100h147l269 -824l252 824h102z" />
    <glyph glyph-name="x" unicode="x" horiz-adv-x="848" 
d="M172 1100l256 -416l274 416h162l-356 -527l354 -573h-160l-282 459l-295 -459h-156l373 571l-328 529h158z" />
    <glyph glyph-name="y" unicode="y" horiz-adv-x="944" 
d="M-33 1100h162l340 -893l356 893h164l-594 -1456h-151l147 358z" />
    <glyph glyph-name="z" unicode="z" horiz-adv-x="825" 
d="M780 0h-760v133l574 834h-510v133h666v-152l-562 -807h592v-141z" />
    <glyph glyph-name="braceleft" unicode="{" 
d="M854 1370l-37.002 0.000976562c-87.333 0 -146.333 -16.5 -177 -49.5s-46 -101.167 -46 -204.5v-242c0 -112 -14.5 -192 -43.5 -240s-80.167 -82.667 -153.5 -104c73.333 -20.667 124.5 -55 153.5 -103s43.5 -128.333 43.5 -241v-241c0 -103.333 15 -171.5 45 -204.5
s86.667 -49.5 170 -49.5c4.66699 0 12 0.333008 22 1s17.667 1 23 1v-107h-47c-131.333 0 -220.166 24.167 -266.499 72.5s-69.5 147.166 -69.5 296.499v244c0 102.667 -19 175 -57 217s-103 63 -195 63c-4.66699 0 -11.834 -0.333008 -21.501 -1s-17.5 -1 -23.5 -1v109
c6 0 13.833 -0.333008 23.5 -1s16.834 -1 21.501 -1c92 0 157 21 195 63s57 114.333 57 217v242c0 148.667 23.333 247.667 70 297s135.334 74 266.001 74h47v-107z" />
    <glyph glyph-name="bar" unicode="|" 
d="M567 1565v-2048h-108v2048h108z" />
    <glyph glyph-name="braceright" unicode="}" 
d="M555 1106l-0.00195312 -241.998c0 -102.667 19 -175 57 -217s103 -63 195 -63c4.66699 0 12 0.333008 22 1s17.667 1 23 1v-109c-5.33301 0 -13 0.333008 -23 1s-17.333 1 -22 1c-92 0 -157 -21 -195 -63s-57 -114.333 -57 -217v-244
c0 -148.667 -23.167 -247.334 -69.5 -296.001s-135.166 -73 -266.499 -73h-47v107h39c86.667 0 145.167 16.333 175.5 49s45.5 100.334 45.5 203.001v241c0 114 14.333 194.667 43 242s80 81.333 154 102c-74 21.333 -125.333 55.666 -154 102.999s-43 127.666 -43 240.999
v242c0 104.667 -15 173.5 -45 206.5s-86.667 49.5 -170 49.5c-4.66699 0 -12 -0.333008 -22 -1s-17.667 -1 -23 -1v107h47c130.667 0 219.334 -24.667 266.001 -74s70 -148.333 70 -297z" />
    <glyph glyph-name="asciitilde" unicode="~" horiz-adv-x="1706" 
d="M1530 637c-68 -48 -134.002 -83.833 -198.002 -107.5s-127 -35.5 -189 -35.5c-66 0 -152.667 19 -260 57l-29 10c-3.33301 1.33301 -8.66602 3.33301 -15.999 6c-117.333 42.667 -208.333 64 -273 64c-55.333 0 -113.666 -12.667 -174.999 -38s-132 -66 -212 -122v113
c70.667 48.667 138 85 202 109s125.667 36 185 36c69.333 0 160 -20.333 272 -61c7.33301 -2.66699 13.333 -5 18 -7c6 -2 16.333 -5.66699 31 -11c111.333 -40 197 -60 257 -60c56.667 0 115.667 12.667 177 38s131.333 66 210 122v-113z" />
    <glyph glyph-name="uni00A0" unicode="&#xa0;" horiz-adv-x="1157" 
 />
    <glyph glyph-name="exclamdown" unicode="&#xa1;" horiz-adv-x="588" 
d="M223 1456h142v-266h-142v266zM223 1075h142v-1075h-142v1075z" />
    <glyph glyph-name="cent" unicode="&#xa2;" horiz-adv-x="1157" 
d="M973 909c-28 89.333 -72.668 156.833 -134.001 202.5s-138.333 68.5 -231 68.5c-109.333 0 -202.166 -43.833 -278.499 -131.5s-114.5 -196.167 -114.5 -325.5c0 -128.667 38.5 -236.334 115.5 -323.001s172.833 -130 287.5 -130c86 0 160.667 24.833 224 74.5
s107 117.834 131 204.501h147c-38.667 -120.667 -96.167 -215 -172.5 -283s-168.833 -107.667 -277.5 -119v-229h-133v232c-134.667 18.667 -246.167 82.667 -334.5 192s-132.5 236.333 -132.5 381c0 148 43.333 275.5 130 382.5s199 171.167 337 192.5v211h133v-206
c115.333 -13.333 211 -53.333 287 -120s130.333 -158 163 -274h-147z" />
    <glyph glyph-name="sterling" unicode="&#xa3;" horiz-adv-x="1157" 
d="M860 811l-0.000976562 -141h-385c28 -50 48.333 -98 61 -144s19 -95 19 -147c0 -49.333 -5.66699 -93.833 -17 -133.5s-29.333 -79.167 -54 -118.5c20 -2 39.5 -3.5 58.5 -4.5s37.5 -1.5 55.5 -1.5c125.333 0 218.166 23 278.499 69s90.5 117 90.5 213
c0 12.667 -1.33301 29.167 -4 49.5s-7 46.166 -13 77.499h142c5.33301 -29.333 9 -52.833 11 -70.5s3 -33.5 3 -47.5c0 -60.667 -10.5 -117.667 -31.5 -171s-50.833 -99 -89.5 -137c-38 -36.667 -83.5 -63.167 -136.5 -79.5s-124.167 -24.5 -213.5 -24.5h-514v127h223
c28 34.667 48.333 70.834 61 108.501s19 80.834 19 129.501c0 52 -7.66699 101 -23 147s-42.666 99.333 -81.999 160h-251v139h145c-14.667 46 -25.167 86 -31.5 120s-9.5 65.667 -9.5 95c0 130.667 43.833 239.5 131.5 326.5s198.834 130.5 333.501 130.5
c115.333 0 211 -33.167 287 -99.5s125.667 -159.5 149 -279.5h-131c-17.333 79.333 -52.833 141.166 -106.5 185.499s-119.167 66.5 -196.5 66.5c-96.667 0 -175.5 -30.5 -236.5 -91.5s-91.5 -139.167 -91.5 -234.5c0 -32 4.5 -66 13.5 -102s23.167 -75 42.5 -117h493z" />
    <glyph glyph-name="currency" unicode="&#xa4;" horiz-adv-x="1241" 
d="M944 887c0 88.667 -31.333 164.333 -94 227s-138.334 94 -227.001 94c-89.333 0 -166 -31.5 -230 -94.5s-96 -138.5 -96 -226.5c0 -89.333 32 -166 96 -230s140.667 -96 230 -96c88.667 0 164.334 32 227.001 96s94 140.667 94 230zM360 1210
c40 30.667 81.5 53.3301 124.5 67.9971s88.5 22 136.5 22s94.167 -7.5 138.5 -22.5s85.5 -37.5 123.5 -67.5l204 205l66 -65l-205 -205c29.333 -39.333 51.333 -81 66 -125s22 -89 22 -135s-7.33301 -90.667 -22 -134s-36.667 -84.666 -66 -123.999l205 -207l-66 -66
l-204 205c-39.333 -30 -81 -52.5 -125 -67.5s-89.667 -22.5 -137 -22.5s-92.333 7.33301 -135 22s-84.667 37.334 -126 68.001l-204 -205l-66 66l205 207c-30 40.667 -52.5 82.5 -67.5 125.5s-22.5 87.167 -22.5 132.5s7.5 89.833 22.5 133.5s37.5 85.834 67.5 126.501
l-205 205l66 65z" />
    <glyph glyph-name="yen" unicode="&#xa5;" horiz-adv-x="1157" 
d="M852 946h184v-110h-243l-88 -168h331v-111h-389v-557h-141v557h-391v111h334l-87 168h-247v110h188l-258 500h162l375 -748l368 748h162z" />
    <glyph glyph-name="brokenbar" unicode="&#xa6;" 
d="M567 408v-758h-108v758h108zM567 1432v-758h-108v758h108z" />
    <glyph glyph-name="section" unicode="&#xa7;" 
d="M391 526l247.998 -157c44.667 30 77 59.833 97 89.5s30 63.167 30 100.5c0 41.333 -11.667 78.166 -35 110.499s-63.666 66.5 -120.999 102.5l-221 137c-45.333 -18 -80.166 -42.667 -104.499 -74s-36.5 -66.666 -36.5 -105.999c0 -36 12.333 -71.5 37 -106.5
s60 -67.167 106 -96.5zM169.998 127l137.002 -0.000976562v-12c0 -67.333 17 -119.333 51 -156s82 -55 144 -55c56.667 0 101.167 14.667 133.5 44s48.5 70 48.5 122c0 41.333 -11.167 77.5 -33.5 108.5s-65.166 65.833 -128.499 104.5l-215 133
c-65.333 40.667 -114.666 84.5 -147.999 131.5s-50 95.833 -50 146.5c0 66 16.167 123.167 48.5 171.5s82.166 90.166 149.499 125.499c-36.667 28 -63.167 58.333 -79.5 91s-24.5 71.334 -24.5 116.001c0 83.333 29.167 152 87.5 206s133.5 81 225.5 81
c97.333 0 173.833 -27.833 229.5 -83.5s83.5 -132.5 83.5 -230.5v-24h-128c-1.33301 70 -19 124 -53 162s-82 57 -144 57c-48.667 0 -87.834 -15.167 -117.501 -45.5s-44.5 -69.833 -44.5 -118.5c0 -38 11.667 -73.167 35 -105.5s58.666 -62.5 105.999 -90.5l203 -121
c82 -48.667 140 -97 174 -145s51 -104.333 51 -169c0 -58.667 -16.333 -111.667 -49 -159s-81 -87.666 -145 -120.999c35.333 -31.333 61.833 -66 79.5 -104s26.5 -79.333 26.5 -124c0 -82 -30.667 -149.5 -92 -202.5s-139 -79.5 -233 -79.5
c-100.667 0 -180.834 28.5 -240.501 85.5s-89.5 133.5 -89.5 229.5c0 3.33301 0.333008 8.5 1 15.5s1 12.167 1 15.5z" />
    <glyph glyph-name="dieresis" unicode="&#xa8;" 
d="M625 1313v164h143v-164h-143zM256 1313v164h141v-164h-141z" />
    <glyph glyph-name="copyright" unicode="&#xa9;" horiz-adv-x="1706" 
d="M1073 915c-12 53.333 -37 94.667 -75 124s-85.333 44 -142 44c-81.333 0 -144.666 -31.667 -189.999 -95s-68 -152.333 -68 -267c0 -110.667 23 -197.334 69 -260.001s109 -94 189 -94c59.333 0 109.666 16.833 150.999 50.5s67.333 79.5 78 137.5h115
c-7.33301 -83.333 -43.5 -151.666 -108.5 -204.999s-145.5 -80 -241.5 -80c-118 0 -211 40.667 -279 122s-102 193 -102 335c0 135.333 35.833 244 107.5 326s166.167 123 283.5 123c90 0 165.5 -24 226.5 -72s95.5 -111 103.5 -189h-117zM1505 723.001
c0 88 -16.1689 171.668 -48.502 251.001s-78.833 149.333 -139.5 210c-62.667 62.667 -133.667 110.334 -213 143.001s-163.333 49 -252 49c-88 0 -171 -16 -249 -48s-147.333 -78.667 -208 -140c-62.667 -64 -110.667 -135.833 -144 -215.5s-50 -162.834 -50 -249.501
c0 -86 16.5 -168.333 49.5 -247s80.5 -149.334 142.5 -212.001c62.667 -62 133.334 -109.5 212.001 -142.5s161 -49.5 247 -49.5c86.667 0 170.167 16.667 250.5 50s152.5 81.333 216.5 144c60.667 59.333 106.834 128 138.501 206s47.5 161.667 47.5 251zM851.998 1456
c99.333 0 193.835 -18.5 283.502 -55.5s169.167 -90.167 238.5 -159.5c68 -68 120.167 -146.5 156.5 -235.5s54.5 -183.167 54.5 -282.5c0 -100 -17.833 -193.667 -53.5 -281s-88.167 -165 -157.5 -233c-71.333 -70.667 -152 -124.834 -242 -162.501
s-183.333 -56.5 -280 -56.5s-189.334 18.5 -278.001 55.5s-168 90.833 -238 161.5c-70 69.333 -123.333 148.333 -160 237s-55 181.667 -55 279c0 96.667 18.833 189.834 56.5 279.501s91.834 170.5 162.501 242.5c67.333 68.667 144.666 121 231.999 157
s180.666 54 279.999 54z" />
    <glyph glyph-name="ordfeminine" unicode="&#xaa;" horiz-adv-x="969" 
d="M782 1075c0 82 -31.333 153.667 -94 215s-135 92 -217 92c-88 0 -163.167 -30.667 -225.5 -92s-93.5 -137 -93.5 -227c0 -85.333 31.167 -157.5 93.5 -216.5s136.833 -88.5 223.5 -88.5c84 0 157.167 31 219.5 93s93.5 136.667 93.5 224zM782 809
c-32.667 -44.667 -77.333 -79.667 -134 -105s-117.667 -38 -183 -38c-120.667 0 -221.167 38.667 -301.5 116s-120.5 172.333 -120.5 285c0 115.333 41 211.833 123 289.5s185 116.5 309 116.5c63.333 0 121.5 -12 174.5 -36s97.167 -58.667 132.5 -104v123h103v-770h-103
v123z" />
    <glyph glyph-name="guillemotleft" unicode="&#xab;" horiz-adv-x="1375" 
d="M968 1314l-462 -462l462 -460l133 140l-327 320l327 329zM850 1516c117.333 0 227 -30 329 -90c100.667 -58 180.667 -137.667 240 -239c60 -100 90 -209 90 -327c0 -121.333 -30 -231.333 -90 -330c-59.333 -101.333 -139 -180.333 -239 -237
c-102 -58.667 -212 -88 -330 -88s-227.333 29 -328 87c-100 56 -179.333 135.333 -238 238c-60 100.667 -90 210.667 -90 330c0 115.333 29.667 224 89 326c60 102 140 182 240 240c102 60 211 90 327 90v0z" />
    <glyph glyph-name="logicalnot" unicode="&#xac;" horiz-adv-x="1706" 
d="M1452 858v-502h-96v402h-1102v100h1198z" />
    <glyph glyph-name="uni00AD" unicode="&#xad;" horiz-adv-x="659" 
d="M563 616v-133h-469v133h469z" />
    <glyph glyph-name="registered" unicode="&#xae;" horiz-adv-x="1706" 
d="M850 1071l-158 0.00195312v-303h158c89.333 0 152 11.167 188 33.5s54 60.166 54 113.499c0 55.333 -19 95.166 -57 119.499s-99.667 36.5 -185 36.5zM874 1157c118.667 0 206.5 -19 263.5 -57s85.5 -96.667 85.5 -176c0 -59.333 -18 -109 -54 -149
s-84.333 -64.333 -145 -73l188 -389h-145l-178 371h-197v-371h-127v844h309zM1505 721.002c0 89.333 -16 173.669 -48 253.002s-78 149.333 -138 210c-62.667 62 -133.834 109.5 -213.501 142.5s-164.167 49.5 -253.5 49.5c-86.667 0 -168.834 -16 -246.501 -48
s-147.167 -78.667 -208.5 -140c-63.333 -64.667 -111.833 -136.834 -145.5 -216.501s-50.5 -162.5 -50.5 -248.5s16.5 -168.333 49.5 -247s80.5 -149.334 142.5 -212.001c62.667 -62 133.334 -109.5 212.001 -142.5s161 -49.5 247 -49.5c86.667 0 170.167 16.667 250.5 50
s152.5 81.333 216.5 144c60.667 59.333 106.834 127.5 138.501 204.5s47.5 160.5 47.5 250.5zM852 1456c101.333 0 196.5 -18.3311 285.5 -54.998s167.833 -90 236.5 -160c68 -68 120.167 -146.5 156.5 -235.5s54.5 -183.167 54.5 -282.5
c0 -100 -17.833 -193.667 -53.5 -281s-88.167 -165 -157.5 -233c-71.333 -70.667 -152 -124.834 -242 -162.501s-183.333 -56.5 -280 -56.5c-98 0 -191.167 18.5 -279.5 55.5s-167.166 90.833 -236.499 161.5c-70 69.333 -123.333 148.333 -160 237s-55 181.667 -55 279
c0 96 18.833 189.167 56.5 279.5s91.834 171.166 162.501 242.499c67.333 68.667 144.666 121 231.999 157s180.666 54 279.999 54z" />
    <glyph glyph-name="macron" unicode="&#xaf;" 
d="M256 1346v116h512v-116h-512z" />
    <glyph glyph-name="degree" unicode="&#xb0;" horiz-adv-x="674" 
d="M545 1174c0 57.333 -20.168 106.333 -60.501 147s-89.166 61 -146.499 61s-106.5 -20.333 -147.5 -61s-61.5 -89.667 -61.5 -147c0 -58 20.333 -107 61 -147s90 -60 148 -60s107 20 147 60s60 89 60 147zM337.999 1452c76.667 0 141.834 -27.166 195.501 -81.499
s80.5 -119.833 80.5 -196.5s-27.167 -142.334 -81.5 -197.001s-119.833 -82 -196.5 -82c-78 0 -143.667 27 -197 81s-80 120 -80 198c0 77.333 27.167 143 81.5 197s120.166 81 197.499 81z" />
    <glyph glyph-name="plusminus" unicode="&#xb1;" horiz-adv-x="1706" 
d="M1452 150v-99h-1198v99h1198zM903 1169v-348h549v-98h-549v-348h-98v348h-551v98h551v348h98z" />
    <glyph glyph-name="uni00B2" unicode="&#xb2;" horiz-adv-x="764" 
d="M684 582l-596 0.000976562v84l340 295c64.667 54 108.5 98.5 131.5 133.5s34.5 70.833 34.5 107.5c0 55.333 -19.667 101.333 -59 138s-89.333 55 -150 55c-62 0 -111.667 -18.833 -149 -56.5s-56 -87.834 -56 -150.501v-25h-92v13c0 88 28.5 159.833 85.5 215.5
s130.167 83.5 219.5 83.5c81.333 0 150.5 -26.833 207.5 -80.5s85.5 -119.834 85.5 -198.501c0 -46 -12 -89.667 -36 -131s-61.667 -83.666 -113 -126.999l-324 -272h471v-84z" />
    <glyph glyph-name="uni00B3" unicode="&#xb3;" horiz-adv-x="764" 
d="M168 848l-0.00390625 -7.99707c0 -58 19.667 -106 59 -144s88 -57 146 -57c62.667 0 114.5 19 155.5 57s61.5 86.667 61.5 146c0 66 -21.667 116.167 -65 150.5s-106.333 51.5 -189 51.5h-45v72c5.33301 -0.666992 10.833 -1.16699 16.5 -1.5s13.834 -0.5 24.501 -0.5
c62.667 0 110 12 142 36s48 59.667 48 107c0 40.667 -13.5 74.167 -40.5 100.5s-61.167 39.5 -102.5 39.5c-47.333 0 -84.166 -12.833 -110.499 -38.5s-40.166 -62.167 -41.499 -109.5h-88c4 69.333 27.833 124 71.5 164s101.167 60 172.5 60
c66 0 122.167 -21.333 168.5 -64s69.5 -93.334 69.5 -152.001c0 -34.667 -7.5 -64.834 -22.5 -90.501s-39.167 -49.167 -72.5 -70.5c53.333 -26 93.333 -59.5 120 -100.5s40 -89.5 40 -145.5c0 -80.667 -29.167 -148.334 -87.5 -203.001s-131.5 -82 -219.5 -82
c-94.667 0 -169.167 25 -223.5 75s-82.166 119.333 -83.499 208h96z" />
    <glyph glyph-name="acute" unicode="&#xb4;" 
d="M479 1247h-92l209 350h152z" />
    <glyph glyph-name="uni00B5" unicode="&#xb5;" horiz-adv-x="1110" 
d="M344 1065l-125 -592.002c-5.33301 -26 -9.33301 -50.333 -12 -73s-4 -44.667 -4 -66c0 -78 19.333 -138.167 58 -180.5s94.334 -63.5 167.001 -63.5c83.333 0 155 35.833 215 107.5s104.333 175.167 133 310.5l121 557h139l-164 -770c-8 -36.667 -13.667 -65 -17 -85
s-5 -36 -5 -48c0 -22 5.66699 -38.5 17 -49.5s28.333 -16.5 51 -16.5c4.66699 0 10.167 0.166992 16.5 0.5s12.833 0.833008 19.5 1.5l-20 -110c-12.667 -3.33301 -26.334 -6 -41.001 -8s-29.667 -3 -45 -3c-46.667 0 -81.167 12 -103.5 36s-33.5 60.667 -33.5 110v14
c-28 -51.333 -68 -91.166 -120 -119.499s-111.667 -42.5 -179 -42.5c-61.333 0 -115 13.333 -161 40s-82 65.334 -108 116.001l-114 -557h-140l316 1491h139z" />
    <glyph glyph-name="paragraph" unicode="&#xb6;" 
d="M940 1409h-127.001v-1409h-82v1409h-186v-1409h-84v782c-116 5.33301 -207.833 39.5 -275.5 102.5s-101.5 144.833 -101.5 245.5c0 104.667 35.833 189 107.5 253s166.834 96 285.501 96h463v-70z" />
    <glyph glyph-name="periodcentered" unicode="&#xb7;" horiz-adv-x="578" 
d="M197 729c0 26 9 48.167 27 66.5s39.667 27.5 65 27.5s47.333 -9.33301 66 -28s28 -40.667 28 -66s-9.16699 -47 -27.5 -65s-40.5 -27 -66.5 -27s-47.833 9 -65.5 27s-26.5 39.667 -26.5 65z" />
    <glyph glyph-name="periodcentered" unicode="&#x2219;" horiz-adv-x="578" 
d="M197 729c0 26 9 48.167 27 66.5s39.667 27.5 65 27.5s47.333 -9.33301 66 -28s28 -40.667 28 -66s-9.16699 -47 -27.5 -65s-40.5 -27 -66.5 -27s-47.833 9 -65.5 27s-26.5 39.667 -26.5 65z" />
    <glyph glyph-name="cedilla" unicode="&#xb8;" 
d="M512 -111l19.999 -0.000976562c71.333 0 125.833 -14.667 163.5 -44s56.5 -72 56.5 -128s-19.667 -99.333 -59 -130s-95.666 -46 -168.999 -46c-38 0 -76.833 3 -116.5 9s-84.834 16 -135.501 30v78c61.333 -13.333 109.833 -22.5 145.5 -27.5s66.5 -7.5 92.5 -7.5
c42.667 0 74.834 7.5 96.501 22.5s32.5 37.5 32.5 67.5c0 36.667 -11.5 63.334 -34.5 80.001s-59.167 25 -108.5 25c-12.667 0 -22.167 -0.166992 -28.5 -0.5s-12.5 -0.833008 -18.5 -1.5v184h63v-111z" />
    <glyph glyph-name="uni00B9" unicode="&#xb9;" horiz-adv-x="764" 
d="M446 582h-100v798h-168v76h268v-874z" />
    <glyph glyph-name="ordmasculine" unicode="&#xba;" horiz-adv-x="932" 
d="M152 1071c0 -88.667 30.001 -162.668 90.001 -222.001s135 -89 225 -89c88.667 0 163 29.833 223 89.5s90 134.167 90 223.5c0 90.667 -30.333 165.5 -91 224.5s-137.334 88.5 -230.001 88.5c-84.667 0 -157 -30.167 -217 -90.5s-90 -135.166 -90 -224.499zM41.001 1071
c0 112.667 41.333 209.168 124 289.501s180.667 120.5 294 120.5c120 0 222 -39.333 306 -118s126 -172.667 126 -282c0 -115.333 -41.167 -213.333 -123.5 -294s-182.5 -121 -300.5 -121c-120 0 -221 39.667 -303 119s-123 174.666 -123 285.999z" />
    <glyph glyph-name="guillemotright" unicode="&#xbb;" horiz-adv-x="1412" 
d="M578 400l461 460l-461 462l-134 -141l321 -321l-321 -328zM689 1508c115.333 0 224.333 -29.667 327 -89c100.667 -60 180.667 -139.667 240 -239c59.333 -104 89 -213.333 89 -328c0 -118.667 -29.667 -228.667 -89 -330c-59.333 -100 -139.333 -179 -240 -237
c-103.333 -58.667 -212.333 -88 -327 -88c-118 0 -226.333 29.333 -325 88c-101.333 56.667 -180.333 135.667 -237 237c-60 100.667 -90 210.667 -90 330c0 116 30 224.667 90 326c56 98.667 135.333 179 238 241c100 59.333 208 89 324 89z" />
    <glyph glyph-name="onequarter" unicode="&#xbc;" horiz-adv-x="1800" 
d="M1559 227l4 494l-342 -494h338zM1645 0h-89v158h-430v69l416 588h103v-588h100v-69h-100v-158zM508 -29h-121l905 1514h119zM426 641h-96v745h-160v70h256v-815z" />
    <glyph glyph-name="onehalf" unicode="&#xbd;" horiz-adv-x="1800" 
d="M1724 0l-569 -0.00488281v80l326 272c64 54.667 106.167 97.834 126.5 129.501s30.5 64.5 30.5 98.5c0 50.667 -18.667 93.334 -56 128.001s-84.666 52 -141.999 52c-60 0 -107.833 -17.667 -143.5 -53s-53.5 -82.666 -53.5 -141.999v-22h-88v12
c0 82.667 27.167 149.834 81.5 201.501s124.166 77.5 209.499 77.5c77.333 0 143.333 -25.167 198 -75.5s82 -112.166 82 -185.499c0 -42 -11.333 -82.333 -34 -121s-59 -78.667 -109 -120l-309 -252h450v-80zM508 -29.0049h-121l905 1514h119zM426 640.995h-96v745h-160v70
h256v-815z" />
    <glyph glyph-name="threequarters" unicode="&#xbe;" horiz-adv-x="1800" 
d="M1559 227l4 494l-342 -494h338zM1645 0h-89v158h-430v69l416 588h103v-588h100v-69h-100v-158zM508 -29h-121l905 1514h119zM160 889l-0.00292969 -5.99805c0 -54 18.833 -99 56.5 -135s84.167 -54 139.5 -54c60 0 109.5 17.667 148.5 53s58.5 80.666 58.5 135.999
c0 62 -20.667 109.167 -62 141.5s-102 48.5 -182 48.5h-43l1 68c4 -0.666992 9 -1.16699 15 -1.5s14.333 -0.5 25 -0.5c60.667 0 106.334 11.167 137.001 33.5s46 55.5 46 99.5c0 38 -13.167 69.333 -39.5 94s-59.166 37 -98.499 37c-44.667 0 -80 -12.167 -106 -36.5
s-39 -57.833 -39 -100.5h-84c4 63.333 27 113.666 69 150.999s97 56 165 56c62.667 0 115.834 -19.833 159.501 -59.5s65.5 -86.834 65.5 -141.501c0 -32.667 -7 -61 -21 -85s-36.333 -46.333 -67 -67c50 -23.333 87.333 -54 112 -92s37 -83.667 37 -137
c0 -74.667 -27.833 -137.667 -83.5 -189s-125.5 -77 -209.5 -77c-89.333 0 -159.833 23.333 -211.5 70s-78.5 111.334 -80.5 194.001h92z" />
    <glyph glyph-name="questiondown" unicode="&#xbf;" horiz-adv-x="948" 
d="M387 1058l142.998 0.999023c0 -62.667 -12.833 -123.667 -38.5 -183s-63.834 -116.333 -114.501 -171c-12 -13.333 -30 -31.333 -54 -54c-84 -78.667 -126 -162.667 -126 -252c0 -86.667 23.5 -155 70.5 -205s111.5 -75 193.5 -75c86 0 153.167 28 201.5 84
s74.5 136.333 78.5 241h148c-2 -142 -43 -256.333 -123 -343s-184.333 -130 -313 -130c-121.333 0 -219.666 39.667 -294.999 119s-113 182.333 -113 309c0 125.333 55.667 238 167 338l24 21c54.667 50.667 93.334 98.834 116.001 144.501s34.334 97.5 35.001 155.5z
M529.998 1456v-266h-143v266h143z" />
    <glyph glyph-name="Agrave" unicode="&#xc0;" horiz-adv-x="1223" 
d="M100 0h-151l565 1456h172l563 -1456h-153l-174 457h-648zM872 588l-276 731l-272 -731h548zM631 1597l-269 350h152l209 -350h-92z" />
    <glyph glyph-name="Aacute" unicode="&#xc1;" horiz-adv-x="1223" 
d="M100 0h-151l565 1456h172l563 -1456h-153l-174 457h-648zM872 588l-276 731l-272 -731h548zM565 1597h-92l209 350h152z" />
    <glyph glyph-name="Acircumflex" unicode="&#xc2;" horiz-adv-x="1223" 
d="M100 0h-151l565 1456h172l563 -1456h-153l-174 457h-648zM872 588l-276 731l-272 -731h548zM322 1597l200 350h152l200 -350h-92l-184 264l-184 -264h-92z" />
    <glyph glyph-name="Atilde" unicode="&#xc3;" horiz-adv-x="1223" 
d="M100 0h-151l565 1456h172l563 -1456h-153l-174 457h-648zM872 588l-276 731l-272 -731h548zM887 1849c-17.333 -60.667 -42 -106.499 -74 -137.499s-71 -46.5 -117 -46.5c-9.33301 0 -19.333 0.833008 -30 2.5s-22.334 4.16699 -35.001 7.5l-97 31
c-10 2.66699 -19.167 4.66699 -27.5 6s-16.833 2 -25.5 2c-20 0 -37.833 -6.33301 -53.5 -19s-28.5 -31 -38.5 -55h-80c14 60 37.833 105.833 71.5 137.5s74.834 47.5 123.501 47.5c10.667 0 20.334 -0.833008 29.001 -2.5s16.667 -3.83398 24 -6.50098l96 -30
c8.66699 -3.33301 18 -6 28 -8s19.333 -3 28 -3c22 0 40.667 5.83301 56 17.5s28.666 30.5 39.999 56.5h82z" />
    <glyph glyph-name="Adieresis" unicode="&#xc4;" horiz-adv-x="1223" 
d="M100 0h-151l565 1456h172l563 -1456h-153l-174 457h-648zM872 588l-276 731l-272 -731h548zM711 1663v164h143v-164h-143zM342 1663v164h141v-164h-141z" />
    <glyph glyph-name="Aring" unicode="&#xc5;" horiz-adv-x="1223" 
d="M461 1743c0 -39.333 13.6689 -72.666 41.002 -99.999s60.666 -41 99.999 -41c40 0 73.833 13.667 101.5 41s41.5 60.666 41.5 99.999s-14.167 73.333 -42.5 102s-61.833 43 -100.5 43s-71.834 -14.167 -99.501 -42.5s-41.5 -62.5 -41.5 -102.5zM371.002 1743
c0 63.333 22.333 117.333 67 162s98.667 67 162 67s117.333 -22.333 162 -67s67 -98.667 67 -162s-22.333 -117.5 -67 -162.5s-98.667 -67.5 -162 -67.5c-64 0 -118.167 22.333 -162.5 67s-66.5 99 -66.5 163zM872.002 588l-276 731l-272 -731h548zM100.002 0h-151l565 1456
h172l563 -1456h-153l-174 457h-648z" />
    <glyph glyph-name="AE" unicode="&#xc6;" horiz-adv-x="1810" 
d="M465 627h473l6 686h-16zM367 483l-330 -483h-172l1001 1456h824v-143h-613v-510h613v-144h-613v-518h613v-141h-756v483h-567z" />
    <glyph glyph-name="Ccedilla" unicode="&#xc7;" horiz-adv-x="1540" 
d="M1296 1079c-65.333 90.667 -138.333 157.334 -219 200.001s-172.667 64 -276 64c-162 0 -300.5 -60 -415.5 -180s-172.5 -262.667 -172.5 -428c0 -176 57.167 -324.333 171.5 -445s253.166 -181 416.499 -181c100.667 0 191.667 21 273 63s152 104.667 212 188h170
c-66.667 -124 -156 -219.833 -268 -287.5s-237.667 -101.5 -377 -101.5c-214 0 -392.5 73 -535.5 219s-214.5 328.333 -214.5 547c0 102 19.333 198.667 58 290s95.334 173.666 170.001 246.999c69.333 69.333 147.166 121.833 233.499 157.5s179.833 53.5 280.5 53.5
c144.667 0 274.834 -35.333 390.501 -106s207.167 -170.667 274.5 -300h-172zM801 -111l19.999 -0.000976562c71.333 0 125.833 -14.667 163.5 -44s56.5 -72 56.5 -128s-19.667 -99.333 -59 -130s-95.666 -46 -168.999 -46c-38 0 -76.833 3 -116.5 9s-84.834 16 -135.501 30
v78c61.333 -13.333 109.833 -22.5 145.5 -27.5s66.5 -7.5 92.5 -7.5c42.667 0 74.834 7.5 96.501 22.5s32.5 37.5 32.5 67.5c0 36.667 -11.5 63.334 -34.5 80.001s-59.167 25 -108.5 25c-12.667 0 -22.167 -0.166992 -28.5 -0.5s-12.5 -0.833008 -18.5 -1.5v184h63v-111z
" />
    <glyph glyph-name="Egrave" unicode="&#xc8;" horiz-adv-x="1028" 
d="M279 803h612v-144h-612v-518h612v-141h-756v1456h756v-143h-612v-510zM561 1597l-269 350h152l209 -350h-92z" />
    <glyph glyph-name="Eacute" unicode="&#xc9;" horiz-adv-x="1028" 
d="M279 803h612v-144h-612v-518h612v-141h-756v1456h756v-143h-612v-510zM495 1597h-92l209 350h152z" />
    <glyph glyph-name="Ecircumflex" unicode="&#xca;" horiz-adv-x="1028" 
d="M279 803h612v-144h-612v-518h612v-141h-756v1456h756v-143h-612v-510zM252 1597l200 350h152l200 -350h-92l-184 264l-184 -264h-92z" />
    <glyph glyph-name="Edieresis" unicode="&#xcb;" horiz-adv-x="1028" 
d="M279 803h612v-144h-612v-518h612v-141h-756v1456h756v-143h-612v-510zM641 1663v164h143v-164h-143zM272 1663v164h141v-164h-141z" />
    <glyph glyph-name="Igrave" unicode="&#xcc;" horiz-adv-x="412" 
d="M276 0h-143v1456h143v-1456zM240 1597l-269 350h152l209 -350h-92z" />
    <glyph glyph-name="Iacute" unicode="&#xcd;" horiz-adv-x="412" 
d="M276 0h-143v1456h143v-1456zM174 1597h-92l209 350h152z" />
    <glyph glyph-name="Icircumflex" unicode="&#xce;" horiz-adv-x="412" 
d="M276 0h-143v1456h143v-1456zM-69 1597l200 350h152l200 -350h-92l-184 264l-184 -264h-92z" />
    <glyph glyph-name="Idieresis" unicode="&#xcf;" horiz-adv-x="412" 
d="M276 0h-143v1456h143v-1456zM320 1663v164h143v-164h-143zM-49 1663v164h141v-164h-141z" />
    <glyph glyph-name="Eth" unicode="&#xd0;" horiz-adv-x="1380" 
d="M600 1317l-309 -0.000976562v-522h358v-127h-358v-531h336c163.333 0 293.833 54.333 391.5 163s146.5 253.667 146.5 435c0 178.667 -50.5 320.334 -151.5 425.001s-238.833 157 -413.5 157zM150 -0.000976562l0.00195312 668h-154v127h154v661h438
c218.667 0 395.167 -67.667 529.5 -203s201.5 -312 201.5 -530c0 -122.667 -25.333 -235.5 -76 -338.5s-123.667 -189.5 -219 -259.5c-60.667 -45.333 -125.334 -77.5 -194.001 -96.5s-169.334 -28.5 -302.001 -28.5h-378z" />
    <glyph glyph-name="Ntilde" unicode="&#xd1;" horiz-adv-x="1366" 
d="M1102 174l-17 1282h142v-1456h-172l-799 1284l16 -1284h-141v1456h172zM973 1849c-17.333 -60.667 -42 -106.499 -74 -137.499s-71 -46.5 -117 -46.5c-9.33301 0 -19.333 0.833008 -30 2.5s-22.334 4.16699 -35.001 7.5l-97 31c-10 2.66699 -19.167 4.66699 -27.5 6
s-16.833 2 -25.5 2c-20 0 -37.833 -6.33301 -53.5 -19s-28.5 -31 -38.5 -55h-80c14 60 37.833 105.833 71.5 137.5s74.834 47.5 123.501 47.5c10.667 0 20.334 -0.833008 29.001 -2.5s16.667 -3.83398 24 -6.50098l96 -30c8.66699 -3.33301 18 -6 28 -8s19.333 -3 28 -3
c22 0 40.667 5.83301 56 17.5s28.666 30.5 39.999 56.5h82z" />
    <glyph glyph-name="Ograve" unicode="&#xd2;" horiz-adv-x="1612" 
d="M211 735c0 -177.333 57.666 -325.997 172.999 -445.997s257.666 -180 426.999 -180c165.333 0 305 60.667 419 182s171 270.666 171 447.999c0 165.333 -58.667 307.833 -176 427.5s-258.666 179.5 -423.999 179.5c-67.333 0 -132.166 -11.5 -194.499 -34.5
s-119.833 -56.833 -172.5 -101.5c-69.333 -58.667 -123.833 -130.334 -163.5 -215.001s-59.5 -171.334 -59.5 -260.001zM60.999 737.003c0 101.333 19.499 197.999 58.499 289.999s95.5 174.333 169.5 247c71.333 70 149.833 122.667 235.5 158s178.5 53 278.5 53
c102 0 196.5 -17.833 283.5 -53.5s166.5 -88.834 238.5 -159.501c74 -72.667 129.667 -154 167 -244s56 -187 56 -291c0 -103.333 -16 -198.166 -48 -284.499s-80 -164.833 -144 -235.5c-74 -81.333 -157.667 -142.666 -251 -183.999s-194.666 -62 -303.999 -62
c-209.333 0 -385 73.5 -527 220.5s-213 328.833 -213 545.5zM839.998 1597l-269 350h152l209 -350h-92z" />
    <glyph glyph-name="Oacute" unicode="&#xd3;" horiz-adv-x="1612" 
d="M211 735c0 -177.333 57.666 -325.997 172.999 -445.997s257.666 -180 426.999 -180c165.333 0 305 60.667 419 182s171 270.666 171 447.999c0 165.333 -58.667 307.833 -176 427.5s-258.666 179.5 -423.999 179.5c-67.333 0 -132.166 -11.5 -194.499 -34.5
s-119.833 -56.833 -172.5 -101.5c-69.333 -58.667 -123.833 -130.334 -163.5 -215.001s-59.5 -171.334 -59.5 -260.001zM60.999 737.003c0 101.333 19.499 197.999 58.499 289.999s95.5 174.333 169.5 247c71.333 70 149.833 122.667 235.5 158s178.5 53 278.5 53
c102 0 196.5 -17.833 283.5 -53.5s166.5 -88.834 238.5 -159.501c74 -72.667 129.667 -154 167 -244s56 -187 56 -291c0 -103.333 -16 -198.166 -48 -284.499s-80 -164.833 -144 -235.5c-74 -81.333 -157.667 -142.666 -251 -183.999s-194.666 -62 -303.999 -62
c-209.333 0 -385 73.5 -527 220.5s-213 328.833 -213 545.5zM773.998 1597h-92l209 350h152z" />
    <glyph glyph-name="Ocircumflex" unicode="&#xd4;" horiz-adv-x="1612" 
d="M211 735c0 -177.333 57.666 -325.997 172.999 -445.997s257.666 -180 426.999 -180c165.333 0 305 60.667 419 182s171 270.666 171 447.999c0 165.333 -58.667 307.833 -176 427.5s-258.666 179.5 -423.999 179.5c-67.333 0 -132.166 -11.5 -194.499 -34.5
s-119.833 -56.833 -172.5 -101.5c-69.333 -58.667 -123.833 -130.334 -163.5 -215.001s-59.5 -171.334 -59.5 -260.001zM60.999 737.003c0 101.333 19.499 197.999 58.499 289.999s95.5 174.333 169.5 247c71.333 70 149.833 122.667 235.5 158s178.5 53 278.5 53
c102 0 196.5 -17.833 283.5 -53.5s166.5 -88.834 238.5 -159.501c74 -72.667 129.667 -154 167 -244s56 -187 56 -291c0 -103.333 -16 -198.166 -48 -284.499s-80 -164.833 -144 -235.5c-74 -81.333 -157.667 -142.666 -251 -183.999s-194.666 -62 -303.999 -62
c-209.333 0 -385 73.5 -527 220.5s-213 328.833 -213 545.5zM530.998 1597l200 350h152l200 -350h-92l-184 264l-184 -264h-92z" />
    <glyph glyph-name="Otilde" unicode="&#xd5;" horiz-adv-x="1612" 
d="M211 735c0 -177.333 57.666 -325.997 172.999 -445.997s257.666 -180 426.999 -180c165.333 0 305 60.667 419 182s171 270.666 171 447.999c0 165.333 -58.667 307.833 -176 427.5s-258.666 179.5 -423.999 179.5c-67.333 0 -132.166 -11.5 -194.499 -34.5
s-119.833 -56.833 -172.5 -101.5c-69.333 -58.667 -123.833 -130.334 -163.5 -215.001s-59.5 -171.334 -59.5 -260.001zM60.999 737.003c0 101.333 19.499 197.999 58.499 289.999s95.5 174.333 169.5 247c71.333 70 149.833 122.667 235.5 158s178.5 53 278.5 53
c102 0 196.5 -17.833 283.5 -53.5s166.5 -88.834 238.5 -159.501c74 -72.667 129.667 -154 167 -244s56 -187 56 -291c0 -103.333 -16 -198.166 -48 -284.499s-80 -164.833 -144 -235.5c-74 -81.333 -157.667 -142.666 -251 -183.999s-194.666 -62 -303.999 -62
c-209.333 0 -385 73.5 -527 220.5s-213 328.833 -213 545.5zM1096 1849c-17.333 -60.667 -42 -106.499 -74 -137.499s-71 -46.5 -117 -46.5c-9.33301 0 -19.333 0.833008 -30 2.5s-22.334 4.16699 -35.001 7.5l-97 31c-10 2.66699 -19.167 4.66699 -27.5 6
s-16.833 2 -25.5 2c-20 0 -37.833 -6.33301 -53.5 -19s-28.5 -31 -38.5 -55h-80c14 60 37.833 105.833 71.5 137.5s74.834 47.5 123.501 47.5c10.667 0 20.334 -0.833008 29.001 -2.5s16.667 -3.83398 24 -6.50098l96 -30c8.66699 -3.33301 18 -6 28 -8s19.333 -3 28 -3
c22 0 40.667 5.83301 56 17.5s28.666 30.5 39.999 56.5h82z" />
    <glyph glyph-name="Odieresis" unicode="&#xd6;" horiz-adv-x="1612" 
d="M211 735c0 -177.333 57.666 -325.997 172.999 -445.997s257.666 -180 426.999 -180c165.333 0 305 60.667 419 182s171 270.666 171 447.999c0 165.333 -58.667 307.833 -176 427.5s-258.666 179.5 -423.999 179.5c-67.333 0 -132.166 -11.5 -194.499 -34.5
s-119.833 -56.833 -172.5 -101.5c-69.333 -58.667 -123.833 -130.334 -163.5 -215.001s-59.5 -171.334 -59.5 -260.001zM60.999 737.003c0 101.333 19.499 197.999 58.499 289.999s95.5 174.333 169.5 247c71.333 70 149.833 122.667 235.5 158s178.5 53 278.5 53
c102 0 196.5 -17.833 283.5 -53.5s166.5 -88.834 238.5 -159.501c74 -72.667 129.667 -154 167 -244s56 -187 56 -291c0 -103.333 -16 -198.166 -48 -284.499s-80 -164.833 -144 -235.5c-74 -81.333 -157.667 -142.666 -251 -183.999s-194.666 -62 -303.999 -62
c-209.333 0 -385 73.5 -527 220.5s-213 328.833 -213 545.5zM919.998 1663v164h143v-164h-143zM550.998 1663v164h141v-164h-141z" />
    <glyph glyph-name="multiply" unicode="&#xd7;" horiz-adv-x="1706" 
d="M856 680l481 481l70 -69l-481 -482l481 -481l-70 -70l-481 482l-481 -482l-70 70l481 481l-481 482l70 69z" />
    <glyph glyph-name="Oslash" unicode="&#xd8;" horiz-adv-x="1612" 
d="M377 303l770 928c-54 40 -107 69.167 -159 87.5s-109 27.5 -171 27.5c-169.333 0 -312 -59.833 -428 -179.5s-174 -263.5 -174 -431.5c0 -84 14 -163.5 42 -238.5s68 -139.5 120 -193.5zM1237 1147l-768 -924.001c56.667 -38.667 112 -67 166 -85s110 -27 168 -27
c168.667 0 310.5 60.333 425.5 181s172.5 268.334 172.5 443.001c0 79.333 -13.667 153 -41 221s-68.333 131.667 -123 191zM283 187.999c-73.333 79.333 -128.336 165 -165.003 257s-55 190 -55 294c0 102 19.333 198.333 58 289s95.334 172.667 170.001 246
c71.333 70 150.5 122.667 237.5 158s181.833 53 284.5 53c81.333 0 156.833 -11.5 226.5 -34.5s136.834 -58.833 201.501 -107.5l172 207l96 -75l-178 -213c72 -69.333 126.167 -147.833 162.5 -235.5s54.5 -184.167 54.5 -289.5c0 -218 -71.333 -399.833 -214 -545.5
s-319.667 -218.5 -531 -218.5c-82 0 -156.167 11 -222.5 33s-134.166 57.667 -203.499 107l-207 -250l-94 78z" />
    <glyph glyph-name="Ugrave" unicode="&#xd9;" horiz-adv-x="1157" 
d="M113 1456l143.001 -0.00292969v-921c0 -71.333 2.83301 -124.666 8.5 -159.999s15.167 -66.666 28.5 -93.999c26 -55.333 64.167 -98.666 114.5 -129.999s107.166 -47 170.499 -47c110 0 191.333 37.5 244 112.5s79 191.167 79 348.5v891h141v-926
c0 -188.667 -37.5 -329.334 -112.5 -422.001s-188.833 -139 -341.5 -139c-163.333 0 -283.333 45.333 -360 136s-115 232.334 -115 425.001v926zM613.001 1597l-269 350h152l209 -350h-92z" />
    <glyph glyph-name="Uacute" unicode="&#xda;" horiz-adv-x="1157" 
d="M113 1456l143.001 -0.00292969v-921c0 -71.333 2.83301 -124.666 8.5 -159.999s15.167 -66.666 28.5 -93.999c26 -55.333 64.167 -98.666 114.5 -129.999s107.166 -47 170.499 -47c110 0 191.333 37.5 244 112.5s79 191.167 79 348.5v891h141v-926
c0 -188.667 -37.5 -329.334 -112.5 -422.001s-188.833 -139 -341.5 -139c-163.333 0 -283.333 45.333 -360 136s-115 232.334 -115 425.001v926zM547.001 1597h-92l209 350h152z" />
    <glyph glyph-name="Ucircumflex" unicode="&#xdb;" horiz-adv-x="1157" 
d="M113 1456l143.001 -0.00292969v-921c0 -71.333 2.83301 -124.666 8.5 -159.999s15.167 -66.666 28.5 -93.999c26 -55.333 64.167 -98.666 114.5 -129.999s107.166 -47 170.499 -47c110 0 191.333 37.5 244 112.5s79 191.167 79 348.5v891h141v-926
c0 -188.667 -37.5 -329.334 -112.5 -422.001s-188.833 -139 -341.5 -139c-163.333 0 -283.333 45.333 -360 136s-115 232.334 -115 425.001v926zM304.001 1597l200 350h152l200 -350h-92l-184 264l-184 -264h-92z" />
    <glyph glyph-name="Udieresis" unicode="&#xdc;" horiz-adv-x="1157" 
d="M113 1456l143.001 -0.00292969v-921c0 -71.333 2.83301 -124.666 8.5 -159.999s15.167 -66.666 28.5 -93.999c26 -55.333 64.167 -98.666 114.5 -129.999s107.166 -47 170.499 -47c110 0 191.333 37.5 244 112.5s79 191.167 79 348.5v891h141v-926
c0 -188.667 -37.5 -329.334 -112.5 -422.001s-188.833 -139 -341.5 -139c-163.333 0 -283.333 45.333 -360 136s-115 232.334 -115 425.001v926zM693.001 1663v164h143v-164h-143zM324.001 1663v164h141v-164h-141z" />
    <glyph glyph-name="Yacute" unicode="&#xdd;" horiz-adv-x="981" 
d="M557 535v-535h-141v537l-465 919h164l372 -756l377 756h160zM459 1597h-92l209 350h152z" />
    <glyph glyph-name="Thorn" unicode="&#xde;" horiz-adv-x="1034" 
d="M262 1030l0.000976562 -553.002h211c113.333 0 198.666 23.333 255.999 70s86 116.334 86 209.001c0 46.667 -9.33301 89.834 -28 129.501s-44.667 71.5 -78 95.5c-24.667 17.333 -53 29.833 -85 37.5s-86.333 11.5 -163 11.5h-199zM119.001 1456l142.998 -0.000976562
v-282h193c82.667 0 147.334 -4.16699 194.001 -12.5s86.334 -22.166 119.001 -41.499c62.667 -37.333 112.5 -88 149.5 -152s55.5 -132.667 55.5 -206c0 -132 -46.333 -237 -139 -315s-219.667 -117 -381 -117h-191v-330h-143v1456z" />
    <glyph glyph-name="germandbls" unicode="&#xdf;" horiz-adv-x="1200" 
d="M256 981l-0.000976562 -623.001h139c26.667 -85.333 64.334 -149.333 113.001 -192s108.667 -64 180 -64c81.333 0 151.833 28.5 211.5 85.5s89.5 124.167 89.5 201.5c0 98 -33.333 172 -100 222s-165 75 -295 75h-90v115h6c89.333 0 159.833 24 211.5 72
s77.5 113.333 77.5 196c0 78 -25.833 141.833 -77.5 191.5s-117.5 74.5 -197.5 74.5c-82.667 0 -148 -25.167 -196 -75.5s-72 -119.166 -72 -206.499v-72zM114.999 964.999c0 171.333 33.834 298.33 101.501 380.997s171.5 124 311.5 124c124 0 225 -37.5 303 -112.5
s117 -171.167 117 -288.5c0 -67.333 -13.167 -124 -39.5 -170s-62.833 -76 -109.5 -90c108.667 -25.333 192.5 -72.166 251.5 -140.499s88.5 -153.166 88.5 -254.499c0 -126 -43.333 -231.333 -130 -316s-195 -127 -325 -127c-105.333 0 -192.833 25.833 -262.5 77.5
s-124.834 131.834 -165.501 240.501v-289h-141v965z" />
    <glyph glyph-name="agrave" unicode="&#xe0;" horiz-adv-x="1290" 
d="M1042 557c0 116.667 -41.667 218.5 -125 305.5s-179.333 130.5 -288 130.5c-118 0 -218.5 -43.5 -301.5 -130.5s-124.5 -194.833 -124.5 -323.5c0 -122.667 41.333 -226.167 124 -310.5s182 -126.5 298 -126.5c112 0 209.5 44.5 292.5 133.5s124.5 196.167 124.5 321.5z
M1042 174c-44 -63.333 -103.504 -113.001 -178.504 -149.001s-155.833 -54 -242.5 -54c-161.333 0 -295.666 55.167 -402.999 165.5s-161 246.5 -161 408.5c0 164.667 54.833 302.334 164.5 413.001s246.834 166 411.501 166c84.667 0 162.334 -17.167 233.001 -51.5
s129.334 -83.833 176.001 -148.5v176h138v-1100h-138v174zM667.996 1247l-269 350h152l209 -350h-92z" />
    <glyph glyph-name="aacute" unicode="&#xe1;" horiz-adv-x="1290" 
d="M1042 557c0 116.667 -41.667 218.5 -125 305.5s-179.333 130.5 -288 130.5c-118 0 -218.5 -43.5 -301.5 -130.5s-124.5 -194.833 -124.5 -323.5c0 -122.667 41.333 -226.167 124 -310.5s182 -126.5 298 -126.5c112 0 209.5 44.5 292.5 133.5s124.5 196.167 124.5 321.5z
M1042 174c-44 -63.333 -103.504 -113.001 -178.504 -149.001s-155.833 -54 -242.5 -54c-161.333 0 -295.666 55.167 -402.999 165.5s-161 246.5 -161 408.5c0 164.667 54.833 302.334 164.5 413.001s246.834 166 411.501 166c84.667 0 162.334 -17.167 233.001 -51.5
s129.334 -83.833 176.001 -148.5v176h138v-1100h-138v174zM601.996 1247h-92l209 350h152z" />
    <glyph glyph-name="acircumflex" unicode="&#xe2;" horiz-adv-x="1290" 
d="M1042 557c0 116.667 -41.667 218.5 -125 305.5s-179.333 130.5 -288 130.5c-118 0 -218.5 -43.5 -301.5 -130.5s-124.5 -194.833 -124.5 -323.5c0 -122.667 41.333 -226.167 124 -310.5s182 -126.5 298 -126.5c112 0 209.5 44.5 292.5 133.5s124.5 196.167 124.5 321.5z
M1042 174c-44 -63.333 -103.504 -113.001 -178.504 -149.001s-155.833 -54 -242.5 -54c-161.333 0 -295.666 55.167 -402.999 165.5s-161 246.5 -161 408.5c0 164.667 54.833 302.334 164.5 413.001s246.834 166 411.501 166c84.667 0 162.334 -17.167 233.001 -51.5
s129.334 -83.833 176.001 -148.5v176h138v-1100h-138v174zM358.996 1247l200 350h152l200 -350h-92l-184 264l-184 -264h-92z" />
    <glyph glyph-name="atilde" unicode="&#xe3;" horiz-adv-x="1290" 
d="M1042 557c0 116.667 -41.667 218.5 -125 305.5s-179.333 130.5 -288 130.5c-118 0 -218.5 -43.5 -301.5 -130.5s-124.5 -194.833 -124.5 -323.5c0 -122.667 41.333 -226.167 124 -310.5s182 -126.5 298 -126.5c112 0 209.5 44.5 292.5 133.5s124.5 196.167 124.5 321.5z
M1042 174c-44 -63.333 -103.504 -113.001 -178.504 -149.001s-155.833 -54 -242.5 -54c-161.333 0 -295.666 55.167 -402.999 165.5s-161 246.5 -161 408.5c0 164.667 54.833 302.334 164.5 413.001s246.834 166 411.501 166c84.667 0 162.334 -17.167 233.001 -51.5
s129.334 -83.833 176.001 -148.5v176h138v-1100h-138v174zM923.996 1499c-17.333 -60.667 -42 -106.499 -74 -137.499s-71 -46.5 -117 -46.5c-9.33301 0 -19.333 0.833008 -30 2.5s-22.334 4.16699 -35.001 7.5l-97 31c-10 2.66699 -19.167 4.66699 -27.5 6
s-16.833 2 -25.5 2c-20 0 -37.833 -6.33301 -53.5 -19s-28.5 -31 -38.5 -55h-80c14 60 37.833 105.833 71.5 137.5s74.834 47.5 123.501 47.5c10.667 0 20.334 -0.833008 29.001 -2.5s16.667 -3.83398 24 -6.50098l96 -30c8.66699 -3.33301 18 -6 28 -8s19.333 -3 28 -3
c22 0 40.667 5.83301 56 17.5s28.666 30.5 39.999 56.5h82z" />
    <glyph glyph-name="adieresis" unicode="&#xe4;" horiz-adv-x="1290" 
d="M1042 557c0 116.667 -41.667 218.5 -125 305.5s-179.333 130.5 -288 130.5c-118 0 -218.5 -43.5 -301.5 -130.5s-124.5 -194.833 -124.5 -323.5c0 -122.667 41.333 -226.167 124 -310.5s182 -126.5 298 -126.5c112 0 209.5 44.5 292.5 133.5s124.5 196.167 124.5 321.5z
M1042 174c-44 -63.333 -103.504 -113.001 -178.504 -149.001s-155.833 -54 -242.5 -54c-161.333 0 -295.666 55.167 -402.999 165.5s-161 246.5 -161 408.5c0 164.667 54.833 302.334 164.5 413.001s246.834 166 411.501 166c84.667 0 162.334 -17.167 233.001 -51.5
s129.334 -83.833 176.001 -148.5v176h138v-1100h-138v174zM747.996 1313v164h143v-164h-143zM378.996 1313v164h141v-164h-141z" />
    <glyph glyph-name="aring" unicode="&#xe5;" horiz-adv-x="1290" 
d="M506 1413c0 -39.333 13.833 -73 41.5 -101s60.834 -42 99.501 -42c39.333 0 73.166 14 101.499 42s42.5 61.667 42.5 101c0 38.667 -14.167 72.167 -42.5 100.5s-62.166 42.5 -101.499 42.5c-38.667 0 -71.834 -13.833 -99.501 -41.5s-41.5 -61.5 -41.5 -101.5zM416 1411
c0 63.333 22.333 117.333 67 162s98.667 67 162 67c64 0 118.667 -22.333 164 -67s68 -98.667 68 -162s-22.667 -117.333 -68 -162s-100 -67 -164 -67s-118.167 22.167 -162.5 66.5s-66.5 98.5 -66.5 162.5zM1042 174c-44 -63.333 -103.504 -113.001 -178.504 -149.001
s-155.833 -54 -242.5 -54c-161.333 0 -295.666 55.167 -402.999 165.5s-161 246.5 -161 408.5c0 164.667 54.833 302.334 164.5 413.001s246.834 166 411.501 166c84.667 0 162.334 -17.167 233.001 -51.5s129.334 -83.833 176.001 -148.5v176h138v-1100h-138v174z
M1042 556.999c0 116.667 -41.667 218.5 -125 305.5s-179.333 130.5 -288 130.5c-118 0 -218.5 -43.5 -301.5 -130.5s-124.5 -194.833 -124.5 -323.5c0 -122.667 41.333 -226.167 124 -310.5s182 -126.5 298 -126.5c112 0 209.5 44.5 292.5 133.5s124.5 196.167 124.5 321.5z
" />
    <glyph glyph-name="ae" unicode="&#xe6;" horiz-adv-x="2228" 
d="M1180 0l-142.005 0.000976562v154c-58.667 -63.333 -121.834 -110 -189.501 -140s-143.5 -45 -227.5 -45c-161.333 0 -295.666 55.5 -402.999 166.5s-161 247.5 -161 409.5c0 164.667 54.833 302.334 164.5 413.001s246.834 166 411.501 166
c76 0 146.833 -14.667 212.5 -44s129.834 -75.333 192.501 -138v158h142v-162c60.667 63.333 126.834 110.166 198.501 140.499s150.834 45.5 237.501 45.5c163.333 0 297.333 -56.5 402 -169.5s157 -259.167 157 -438.5v-14h-987
c8.66699 -118 52.334 -214.167 131.001 -288.5s175 -111.5 289 -111.5c82 0 155.833 21.167 221.5 63.5s116.5 101.833 152.5 178.5h158c-50 -120.667 -120.5 -213.334 -211.5 -278.001s-196.5 -97 -316.5 -97c-90.667 0 -171.167 15 -241.5 45s-133.833 76.667 -190.5 140
v-154zM2023 625.001c-24 118 -72.167 209.499 -144.5 274.499s-161.833 97.5 -268.5 97.5c-109.333 0 -201.333 -33.167 -276 -99.5s-122 -157.166 -142 -272.499h831zM1042 557c0 117.333 -41.834 220 -125.501 308s-179.5 132 -287.5 132
c-117.333 0 -217.666 -44.167 -300.999 -132.5s-125 -196.833 -125 -325.5c0 -122.667 41.333 -226.167 124 -310.5s182 -126.5 298 -126.5c112 0 209.5 44.5 292.5 133.5s124.5 196.167 124.5 321.5z" />
    <glyph glyph-name="ccedilla" unicode="&#xe7;" horiz-adv-x="1241" 
d="M993 762c-43.333 80 -96.166 139.166 -158.499 177.499s-136.5 57.5 -222.5 57.5c-113.333 0 -209.5 -43 -288.5 -129s-118.5 -192.333 -118.5 -319s39.667 -232.5 119 -317.5s177.333 -127.5 294 -127.5c85.333 0 160.666 21 225.999 63s115 101 149 177h156
c-42.667 -119.333 -109.667 -211.666 -201 -276.999s-199 -98 -323 -98c-159.333 0 -293.833 56.5 -403.5 169.5s-164.5 249.167 -164.5 408.5c0 162.667 55.5 300.5 166.5 413.5s246.167 169.5 405.5 169.5c119.333 0 224.5 -32.167 315.5 -96.5
s159.167 -154.833 204.5 -271.5h-156zM621 -111.001l19.999 -0.000976562c71.333 0 125.833 -14.667 163.5 -44s56.5 -72 56.5 -128s-19.667 -99.333 -59 -130s-95.666 -46 -168.999 -46c-38 0 -76.833 3 -116.5 9s-84.834 16 -135.501 30v78
c61.333 -13.333 109.833 -22.5 145.5 -27.5s66.5 -7.5 92.5 -7.5c42.667 0 74.834 7.5 96.501 22.5s32.5 37.5 32.5 67.5c0 36.667 -11.5 63.334 -34.5 80.001s-59.167 25 -108.5 25c-12.667 0 -22.167 -0.166992 -28.5 -0.5s-12.5 -0.833008 -18.5 -1.5v184h63v-111z" />
    <glyph glyph-name="egrave" unicode="&#xe8;" horiz-adv-x="1241" 
d="M1192 506l-992.997 0.000976562c8.66699 -120 52 -217 130 -291s175.333 -111 292 -111c82.667 0 157 21.5 223 64.5s117 102.833 153 179.5h160c-50.667 -122 -121.834 -215.667 -213.501 -281s-197.834 -98 -318.501 -98c-160 0 -295.333 57 -406 171
s-166 251 -166 411c0 167.333 54.167 305.666 162.5 414.999s246.833 164 415.5 164c165.333 0 300.166 -56.833 404.499 -170.5s156.5 -261.5 156.5 -443.5v-10zM1036 625.001c-26.667 123.333 -75.667 216.167 -147 278.5s-164.333 93.5 -279 93.5
c-106.667 0 -197 -33.5 -271 -100.5s-119.333 -157.5 -136 -271.5h833zM666.003 1247l-269 350h152l209 -350h-92z" />
    <glyph glyph-name="eacute" unicode="&#xe9;" horiz-adv-x="1241" 
d="M1192 506l-992.997 0.000976562c8.66699 -120 52 -217 130 -291s175.333 -111 292 -111c82.667 0 157 21.5 223 64.5s117 102.833 153 179.5h160c-50.667 -122 -121.834 -215.667 -213.501 -281s-197.834 -98 -318.501 -98c-160 0 -295.333 57 -406 171
s-166 251 -166 411c0 167.333 54.167 305.666 162.5 414.999s246.833 164 415.5 164c165.333 0 300.166 -56.833 404.499 -170.5s156.5 -261.5 156.5 -443.5v-10zM1036 625.001c-26.667 123.333 -75.667 216.167 -147 278.5s-164.333 93.5 -279 93.5
c-106.667 0 -197 -33.5 -271 -100.5s-119.333 -157.5 -136 -271.5h833zM600.003 1247h-92l209 350h152z" />
    <glyph glyph-name="ecircumflex" unicode="&#xea;" horiz-adv-x="1241" 
d="M1192 506l-992.997 0.000976562c8.66699 -120 52 -217 130 -291s175.333 -111 292 -111c82.667 0 157 21.5 223 64.5s117 102.833 153 179.5h160c-50.667 -122 -121.834 -215.667 -213.501 -281s-197.834 -98 -318.501 -98c-160 0 -295.333 57 -406 171
s-166 251 -166 411c0 167.333 54.167 305.666 162.5 414.999s246.833 164 415.5 164c165.333 0 300.166 -56.833 404.499 -170.5s156.5 -261.5 156.5 -443.5v-10zM1036 625.001c-26.667 123.333 -75.667 216.167 -147 278.5s-164.333 93.5 -279 93.5
c-106.667 0 -197 -33.5 -271 -100.5s-119.333 -157.5 -136 -271.5h833zM357.003 1247l200 350h152l200 -350h-92l-184 264l-184 -264h-92z" />
    <glyph glyph-name="edieresis" unicode="&#xeb;" horiz-adv-x="1241" 
d="M1192 506l-992.997 0.000976562c8.66699 -120 52 -217 130 -291s175.333 -111 292 -111c82.667 0 157 21.5 223 64.5s117 102.833 153 179.5h160c-50.667 -122 -121.834 -215.667 -213.501 -281s-197.834 -98 -318.501 -98c-160 0 -295.333 57 -406 171
s-166 251 -166 411c0 167.333 54.167 305.666 162.5 414.999s246.833 164 415.5 164c165.333 0 300.166 -56.833 404.499 -170.5s156.5 -261.5 156.5 -443.5v-10zM1036 625.001c-26.667 123.333 -75.667 216.167 -147 278.5s-164.333 93.5 -279 93.5
c-106.667 0 -197 -33.5 -271 -100.5s-119.333 -157.5 -136 -271.5h833zM746.003 1313v164h143v-164h-143zM377.003 1313v164h141v-164h-141z" />
    <glyph glyph-name="igrave" unicode="&#xec;" horiz-adv-x="371" 
d="M115 0v1100h141v-1100h-141zM219 1247l-269 350h152l209 -350h-92z" />
    <glyph glyph-name="iacute" unicode="&#xed;" horiz-adv-x="371" 
d="M115 0v1100h141v-1100h-141zM153 1247h-92l209 350h152z" />
    <glyph glyph-name="icircumflex" unicode="&#xee;" horiz-adv-x="371" 
d="M115 0v1100h141v-1100h-141zM-90 1247l200 350h152l200 -350h-92l-184 264l-184 -264h-92z" />
    <glyph glyph-name="idieresis" unicode="&#xef;" horiz-adv-x="371" 
d="M115 0v1100h141v-1100h-141zM299 1313v164h143v-164h-143zM-70 1313v164h141v-164h-141z" />
    <glyph glyph-name="eth" unicode="&#xf0;" horiz-adv-x="1241" 
d="M612 936c-111.333 0 -207.332 -40.501 -287.999 -121.501s-121 -179.833 -121 -296.5c0 -118 40 -216.5 120 -295.5s180 -118.5 300 -118.5c119.333 0 218.666 40.333 297.999 121s119 182.334 119 305.001c0 115.333 -40.667 211.833 -122 289.5
s-183.333 116.5 -306 116.5zM983.001 914.999c-22.667 61.333 -52.999 117.833 -90.999 169.5s-83.333 97.834 -136 138.501l-269 -99l-36 82l223 84c-22.667 14 -47.334 28.167 -74.001 42.5s-55.334 28.833 -86.001 43.5l43 92c51.333 -22.667 96.666 -44.5 135.999 -65.5
s76 -42.833 110 -65.5l287 103l34 -80l-237 -88c97.333 -90.667 171.833 -194.167 223.5 -310.5s77.5 -239.5 77.5 -369.5c0 -186 -52.667 -336 -158 -450s-241.666 -171 -408.999 -171c-158.667 0 -293 53 -403 159s-165 232.667 -165 380c0 148 55.333 275.5 166 382.5
s241.667 160.5 393 160.5c66.667 0 129.334 -10.833 188.001 -32.5s119.667 -56.834 183 -105.501z" />
    <glyph glyph-name="ntilde" unicode="&#xf1;" horiz-adv-x="1143" 
d="M113 1100l137 -0.000976562v-125c43.333 50 93.5 87 150.5 111s122.167 36 195.5 36c80.667 0 152.5 -15 215.5 -45s112.833 -73 149.5 -129c25.333 -39.333 43.5 -85.5 54.5 -138.5s16.5 -131.167 16.5 -234.5v-575h-139v616c0 130 -24.833 224.333 -74.5 283
s-129.167 88 -238.5 88c-64 0 -120.167 -12.833 -168.5 -38.5s-86.5 -62.5 -114.5 -110.5c-17.333 -30 -29.5 -64.167 -36.5 -102.5s-10.5 -105.166 -10.5 -200.499v-535h-137v1100zM873 1499c-17.333 -60.667 -42 -106.499 -74 -137.499s-71 -46.5 -117 -46.5
c-9.33301 0 -19.333 0.833008 -30 2.5s-22.334 4.16699 -35.001 7.5l-97 31c-10 2.66699 -19.167 4.66699 -27.5 6s-16.833 2 -25.5 2c-20 0 -37.833 -6.33301 -53.5 -19s-28.5 -31 -38.5 -55h-80c14 60 37.833 105.833 71.5 137.5s74.834 47.5 123.501 47.5
c10.667 0 20.334 -0.833008 29.001 -2.5s16.667 -3.83398 24 -6.50098l96 -30c8.66699 -3.33301 18 -6 28 -8s19.333 -3 28 -3c22 0 40.667 5.83301 56 17.5s28.666 30.5 39.999 56.5h82z" />
    <glyph glyph-name="ograve" unicode="&#xf2;" horiz-adv-x="1241" 
d="M201 551c0 -126.667 40.333 -232.833 121 -318.5s181 -128.5 301 -128.5c118 0 217 42.833 297 128.5s120 192.5 120 320.5c0 130 -40.5 236.833 -121.5 320.5s-183.833 125.5 -308.5 125.5c-112 0 -208.167 -43 -288.5 -129s-120.5 -192.333 -120.5 -319zM53 549.001
c0 161.333 55.333 299.333 166 414s241.667 172 393 172c159.333 0 295.166 -56.333 407.499 -169s168.5 -247 168.5 -403c0 -164 -55 -304 -165 -420s-243.333 -174 -400 -174c-159.333 0 -294.166 56.833 -404.499 170.5s-165.5 250.167 -165.5 409.5zM664 1247l-269 350
h152l209 -350h-92z" />
    <glyph glyph-name="oacute" unicode="&#xf3;" horiz-adv-x="1241" 
d="M201 551c0 -126.667 40.333 -232.833 121 -318.5s181 -128.5 301 -128.5c118 0 217 42.833 297 128.5s120 192.5 120 320.5c0 130 -40.5 236.833 -121.5 320.5s-183.833 125.5 -308.5 125.5c-112 0 -208.167 -43 -288.5 -129s-120.5 -192.333 -120.5 -319zM53 549.001
c0 161.333 55.333 299.333 166 414s241.667 172 393 172c159.333 0 295.166 -56.333 407.499 -169s168.5 -247 168.5 -403c0 -164 -55 -304 -165 -420s-243.333 -174 -400 -174c-159.333 0 -294.166 56.833 -404.499 170.5s-165.5 250.167 -165.5 409.5zM598 1247h-92
l209 350h152z" />
    <glyph glyph-name="ocircumflex" unicode="&#xf4;" horiz-adv-x="1241" 
d="M201 551c0 -126.667 40.333 -232.833 121 -318.5s181 -128.5 301 -128.5c118 0 217 42.833 297 128.5s120 192.5 120 320.5c0 130 -40.5 236.833 -121.5 320.5s-183.833 125.5 -308.5 125.5c-112 0 -208.167 -43 -288.5 -129s-120.5 -192.333 -120.5 -319zM53 549.001
c0 161.333 55.333 299.333 166 414s241.667 172 393 172c159.333 0 295.166 -56.333 407.499 -169s168.5 -247 168.5 -403c0 -164 -55 -304 -165 -420s-243.333 -174 -400 -174c-159.333 0 -294.166 56.833 -404.499 170.5s-165.5 250.167 -165.5 409.5zM355 1247l200 350
h152l200 -350h-92l-184 264l-184 -264h-92z" />
    <glyph glyph-name="otilde" unicode="&#xf5;" horiz-adv-x="1241" 
d="M201 551c0 -126.667 40.333 -232.833 121 -318.5s181 -128.5 301 -128.5c118 0 217 42.833 297 128.5s120 192.5 120 320.5c0 130 -40.5 236.833 -121.5 320.5s-183.833 125.5 -308.5 125.5c-112 0 -208.167 -43 -288.5 -129s-120.5 -192.333 -120.5 -319zM53 549.001
c0 161.333 55.333 299.333 166 414s241.667 172 393 172c159.333 0 295.166 -56.333 407.499 -169s168.5 -247 168.5 -403c0 -164 -55 -304 -165 -420s-243.333 -174 -400 -174c-159.333 0 -294.166 56.833 -404.499 170.5s-165.5 250.167 -165.5 409.5zM920 1499
c-17.333 -60.667 -42 -106.499 -74 -137.499s-71 -46.5 -117 -46.5c-9.33301 0 -19.333 0.833008 -30 2.5s-22.334 4.16699 -35.001 7.5l-97 31c-10 2.66699 -19.167 4.66699 -27.5 6s-16.833 2 -25.5 2c-20 0 -37.833 -6.33301 -53.5 -19s-28.5 -31 -38.5 -55h-80
c14 60 37.833 105.833 71.5 137.5s74.834 47.5 123.501 47.5c10.667 0 20.334 -0.833008 29.001 -2.5s16.667 -3.83398 24 -6.50098l96 -30c8.66699 -3.33301 18 -6 28 -8s19.333 -3 28 -3c22 0 40.667 5.83301 56 17.5s28.666 30.5 39.999 56.5h82z" />
    <glyph glyph-name="odieresis" unicode="&#xf6;" horiz-adv-x="1241" 
d="M201 551c0 -126.667 40.333 -232.833 121 -318.5s181 -128.5 301 -128.5c118 0 217 42.833 297 128.5s120 192.5 120 320.5c0 130 -40.5 236.833 -121.5 320.5s-183.833 125.5 -308.5 125.5c-112 0 -208.167 -43 -288.5 -129s-120.5 -192.333 -120.5 -319zM53 549.001
c0 161.333 55.333 299.333 166 414s241.667 172 393 172c159.333 0 295.166 -56.333 407.499 -169s168.5 -247 168.5 -403c0 -164 -55 -304 -165 -420s-243.333 -174 -400 -174c-159.333 0 -294.166 56.833 -404.499 170.5s-165.5 250.167 -165.5 409.5zM744 1313v164h143
v-164h-143zM375 1313v164h141v-164h-141z" />
    <glyph glyph-name="divide" unicode="&#xf7;" horiz-adv-x="1706" 
d="M854 365c30 0 55.333 -10.333 76 -31s31 -46 31 -76c0 -29.333 -10.333 -54.333 -31 -75s-46 -31 -76 -31s-55.167 10.333 -75.5 31s-30.5 45.667 -30.5 75s10.333 54.5 31 75.5s45.667 31.5 75 31.5zM1452 659v-98h-1198v98h1198zM854 1071
c29.333 0 54.5 -10.667 75.5 -32s31.5 -46.666 31.5 -75.999c0 -30 -10.333 -55.333 -31 -76s-46 -31 -76 -31s-55.167 10.167 -75.5 30.5s-30.5 45.833 -30.5 76.5c0 29.333 10.5 54.666 31.5 75.999s45.833 32 74.5 32z" />
    <glyph glyph-name="oslash" unicode="&#xf8;" horiz-adv-x="1241" 
d="M115 -137l-84 80.002l176 211c-48.667 51.333 -86.5 111.666 -113.5 180.999s-40.5 140.666 -40.5 213.999c0 162.667 55.167 300.667 165.5 414s244.5 170 402.5 170c59.333 0 116 -8.66699 170 -26s103.667 -42.333 149 -75l168 201l92 -72l-172 -207
c51.333 -52 90.833 -112.5 118.5 -181.5s41.5 -141.5 41.5 -217.5c0 -161.333 -55.667 -299.333 -167 -414s-248.333 -172 -411 -172c-58 0 -112.5 8.5 -163.5 25.5s-102.167 43.5 -153.5 79.5zM381 180.002c35.333 -26 71.168 -45.167 107.501 -57.5
s76.166 -18.5 119.499 -18.5c126 0 229.5 42.167 310.5 126.5s121.5 192.5 121.5 324.5c0 54.667 -8 106 -24 154s-40.667 95 -74 141zM852.002 926.002c-27.333 23.333 -61 41.333 -101 54s-82.667 19 -128 19c-120 0 -220.333 -42.333 -301 -127s-121 -191.667 -121 -321
c0 -56 7.83301 -108 23.5 -156s39.167 -93 70.5 -135z" />
    <glyph glyph-name="ugrave" unicode="&#xf9;" horiz-adv-x="1143" 
d="M109 1100l139.002 -0.00195312v-584c0 -150 24.333 -256.167 73 -318.5s128.667 -93.5 240 -93.5c63.333 0 119 12.833 167 38.5s86.667 62.834 116 111.501c16.667 28.667 28.667 62.5 36 101.5s11 106.833 11 203.5v541h141v-1100h-141v119
c-42.667 -52 -90.334 -89.667 -143.001 -113s-116.334 -35 -191.001 -35c-158.667 0 -273 42.833 -343 128.5s-105 227.834 -105 426.501v574zM598.002 1247l-269 350h152l209 -350h-92z" />
    <glyph glyph-name="uacute" unicode="&#xfa;" horiz-adv-x="1143" 
d="M109 1100l139.002 -0.00195312v-584c0 -150 24.333 -256.167 73 -318.5s128.667 -93.5 240 -93.5c63.333 0 119 12.833 167 38.5s86.667 62.834 116 111.501c16.667 28.667 28.667 62.5 36 101.5s11 106.833 11 203.5v541h141v-1100h-141v119
c-42.667 -52 -90.334 -89.667 -143.001 -113s-116.334 -35 -191.001 -35c-158.667 0 -273 42.833 -343 128.5s-105 227.834 -105 426.501v574zM532.002 1247h-92l209 350h152z" />
    <glyph glyph-name="ucircumflex" unicode="&#xfb;" horiz-adv-x="1143" 
d="M109 1100l139.002 -0.00195312v-584c0 -150 24.333 -256.167 73 -318.5s128.667 -93.5 240 -93.5c63.333 0 119 12.833 167 38.5s86.667 62.834 116 111.501c16.667 28.667 28.667 62.5 36 101.5s11 106.833 11 203.5v541h141v-1100h-141v119
c-42.667 -52 -90.334 -89.667 -143.001 -113s-116.334 -35 -191.001 -35c-158.667 0 -273 42.833 -343 128.5s-105 227.834 -105 426.501v574zM289.002 1247l200 350h152l200 -350h-92l-184 264l-184 -264h-92z" />
    <glyph glyph-name="udieresis" unicode="&#xfc;" horiz-adv-x="1143" 
d="M109 1100l139.002 -0.00195312v-584c0 -150 24.333 -256.167 73 -318.5s128.667 -93.5 240 -93.5c63.333 0 119 12.833 167 38.5s86.667 62.834 116 111.501c16.667 28.667 28.667 62.5 36 101.5s11 106.833 11 203.5v541h141v-1100h-141v119
c-42.667 -52 -90.334 -89.667 -143.001 -113s-116.334 -35 -191.001 -35c-158.667 0 -273 42.833 -343 128.5s-105 227.834 -105 426.501v574zM678.002 1313v164h143v-164h-143zM309.002 1313v164h141v-164h-141z" />
    <glyph glyph-name="yacute" unicode="&#xfd;" horiz-adv-x="944" 
d="M-33 1100h162l340 -893l356 893h164l-594 -1456h-151l147 358zM440 1247h-92l209 350h152z" />
    <glyph glyph-name="thorn" unicode="&#xfe;" horiz-adv-x="1290" 
d="M659 993c-110 0 -205.999 -43.667 -287.999 -131s-123 -191 -123 -311c0 -122 41.667 -227.333 125 -316s180.333 -133 291 -133c115.333 0 214.333 42.167 297 126.5s124 187.833 124 310.5c0 129.333 -41.333 237.333 -124 324s-183.334 130 -302.001 130zM252.001 174
l0.000976562 -240.001v-290h-143v1812h143l-4 -536c40 62 97.167 111.5 171.5 148.5s153.5 55.5 237.5 55.5c164 0 301 -54.667 411 -164s165 -243 165 -401c0 -169.333 -53.333 -309.666 -160 -420.999s-241.667 -167 -405 -167c-89.333 0 -169.833 17.5 -241.5 52.5
s-129.834 85.167 -174.501 150.5z" />
    <glyph glyph-name="ydieresis" unicode="&#xff;" horiz-adv-x="944" 
d="M-33 1100h162l340 -893l356 893h164l-594 -1456h-151l147 358zM586 1313v164h143v-164h-143zM217 1313v164h141v-164h-141z" />
    <glyph glyph-name="OE" unicode="&#x152;" horiz-adv-x="2232" 
d="M1393 260c-82.667 -98.667 -172 -171.501 -268 -218.501s-204 -70.5 -324 -70.5c-209.333 0 -385 73.5 -527 220.5s-213 328.833 -213 545.5c0 101.333 19.5 198 58.5 290s95.5 174.333 169.5 247c71.333 70 149.833 122.667 235.5 158s178.5 53 278.5 53
c122.667 0 234 -24.667 334 -74s185.333 -121.666 256 -216.999v262h755v-143h-612v-510h612v-144h-612v-518h612v-141h-755v260zM211 734.999c0 -177.333 57.666 -325.997 172.999 -445.997s257.666 -180 426.999 -180c165.333 0 305 60.667 419 182
s171 270.666 171 447.999c0 165.333 -58.667 307.833 -176 427.5s-258.666 179.5 -423.999 179.5c-67.333 0 -132.166 -11.5 -194.499 -34.5s-119.833 -56.833 -172.5 -101.5c-69.333 -58.667 -123.833 -130.334 -163.5 -215.001s-59.5 -171.334 -59.5 -260.001z" />
    <glyph glyph-name="oe" unicode="&#x153;" horiz-adv-x="2228" 
d="M2175 502l-987.001 0.000976562c8.66699 -117.333 52.334 -213 131.001 -287s175 -111 289 -111c82.667 0 156.667 21 222 63s116 101 152 177h158c-48.667 -120.667 -119.5 -213.334 -212.5 -278.001s-201.5 -97 -325.5 -97c-107.333 0 -201.833 25.167 -283.5 75.5
s-149.834 124.833 -204.501 223.5c-52 -99.333 -119.167 -174 -201.5 -224s-178.833 -75 -289.5 -75c-160 0 -295 56.667 -405 170s-165 250 -165 410c0 162.667 55.667 300.667 167 414s247 170 407 170c103.333 0 197.666 -26.167 282.999 -78.5
s153.333 -125.833 204 -220.5c54.667 94 125.834 167.333 213.501 220s183.167 79 286.5 79c164.667 0 299.334 -58 404.001 -174s157 -267 157 -453v-4zM2023 625.001c-24 118.667 -72.333 210.667 -145 276s-162 98 -268 98c-110 0 -203.667 -34.5 -281 -103.5
s-123 -159.167 -137 -270.5h831zM200.999 551.001c0 -126.667 40.333 -232.833 121 -318.5s181 -128.5 301 -128.5c118 0 217 42.833 297 128.5s120 192.5 120 320.5c0 130 -40.5 236.833 -121.5 320.5s-183.833 125.5 -308.5 125.5c-112 0 -208.167 -43 -288.5 -129
s-120.5 -192.333 -120.5 -319z" />
    <glyph glyph-name="Scaron" unicode="&#x160;" horiz-adv-x="952" 
d="M58 416h137.997c2.66699 -90 28.167 -161.667 76.5 -215s111.833 -80 190.5 -80c84.667 0 151.834 26.5 201.501 79.5s74.5 124.833 74.5 215.5c0 132 -102 231.667 -306 299l-36 12c-106.667 36.667 -183.5 83.167 -230.5 139.5s-70.5 129.833 -70.5 220.5
c0 116 36.167 211 108.5 285s165.833 111 280.5 111c109.333 0 196 -33.667 260 -101s99.667 -162 107 -284h-135c-7.33301 79.333 -31 140.5 -71 183.5s-93.667 64.5 -161 64.5c-72 0 -130.833 -23.5 -176.5 -70.5s-68.5 -106.833 -68.5 -179.5
c0 -38 6.83301 -70.833 20.5 -98.5s35.5 -52.834 65.5 -75.501c30.667 -22.667 89.334 -48 176.001 -76c50 -16 88 -29 114 -39c94.667 -36.667 162.834 -83.5 204.501 -140.5s62.5 -131.833 62.5 -224.5c0 -141.333 -38.5 -255.166 -115.5 -341.499
s-179.167 -129.5 -306.5 -129.5c-118.667 0 -215 40.833 -289 122.5s-112 189.167 -114 322.5zM200.997 1947h92l184 -262l184 262h92l-200 -348h-152z" />
    <glyph glyph-name="scaron" unicode="&#x161;" horiz-adv-x="797" 
d="M43 346l145 -0.00292969v-4c0 -68.667 19.667 -125.5 59 -170.5s88 -67.5 146 -67.5c55.333 0 101.333 17.333 138 52s55 78.334 55 131.001s-14.5 95 -43.5 127s-81.5 62 -157.5 90c-122 43.333 -201.667 87.666 -239 132.999s-56 106 -56 182c0 86 31.167 159 93.5 219
s137.833 90 226.5 90c94 0 168.667 -26.667 224 -80s85 -127.666 89 -222.999h-151c-3.33301 52 -19.833 92.333 -49.5 121s-70.167 43 -121.5 43c-46 0 -84.333 -15.5 -115 -46.5s-46 -69.5 -46 -115.5c0 -32.667 6.33301 -60.167 19 -82.5s33.667 -42.5 63 -60.5
c26.667 -16.667 65.5 -32.667 116.5 -48s85.167 -26.666 102.5 -33.999c68.667 -29.333 119.167 -68.333 151.5 -117s48.5 -110.667 48.5 -186c0 -94.667 -33 -173 -99 -235s-149.667 -93 -251 -93c-103.333 0 -186.333 33.833 -249 101.5s-95.667 158.834 -99 273.501z
M123 1597h92l184 -262l184 262h92l-200 -348h-152z" />
    <glyph glyph-name="Ydieresis" unicode="&#x178;" horiz-adv-x="981" 
d="M557 535v-535h-141v537l-465 919h164l372 -756l377 756h160zM605 1663v164h143v-164h-143zM236 1663v164h141v-164h-141z" />
    <glyph glyph-name="florin" unicode="&#x192;" horiz-adv-x="1157" 
d="M582 -47c-13.333 -139.333 -49.501 -236.334 -108.501 -291.001s-154.833 -82 -287.5 -82h-30l10 133h41c82.667 0 140.334 14 173.001 42s52.667 82.333 60 163l74 834h-256l10 133h256l21 225c12.667 150.667 46 249.834 100 297.501s147 71.5 279 71.5h49l-10 -129
c-8.66699 0 -18.167 0.333008 -28.5 1s-16.833 1 -19.5 1c-82 0 -138.167 -13 -168.5 -39s-50.5 -89.667 -60.5 -191l-22 -237h258l-13 -133h-256z" />
    <glyph glyph-name="circumflex" unicode="&#x2c6;" 
d="M236 1247l200 350h152l200 -350h-92l-184 264l-184 -264h-92z" />
    <glyph glyph-name="tilde" unicode="&#x2dc;" 
d="M801 1499c-17.333 -60.667 -42 -106.499 -74 -137.499s-71 -46.5 -117 -46.5c-9.33301 0 -19.333 0.833008 -30 2.5s-22.334 4.16699 -35.001 7.5l-97 31c-10 2.66699 -19.167 4.66699 -27.5 6s-16.833 2 -25.5 2c-20 0 -37.833 -6.33301 -53.5 -19s-28.5 -31 -38.5 -55
h-80c14 60 37.833 105.833 71.5 137.5s74.834 47.5 123.501 47.5c10.667 0 20.334 -0.833008 29.001 -2.5s16.667 -3.83398 24 -6.50098l96 -30c8.66699 -3.33301 18 -6 28 -8s19.333 -3 28 -3c22 0 40.667 5.83301 56 17.5s28.666 30.5 39.999 56.5h82z" />
    <glyph glyph-name="endash" unicode="&#x2013;" 
d="M1024 604v-112h-1024v112h1024z" />
    <glyph glyph-name="emdash" unicode="&#x2014;" horiz-adv-x="2048" 
d="M0 492v112h2048v-112h-2048z" />
    <glyph glyph-name="quoteleft" unicode="&#x2018;" horiz-adv-x="397" 
d="M375 1028h-144l-153 428h141z" />
    <glyph glyph-name="quoteright" unicode="&#x2019;" horiz-adv-x="397" 
d="M166 1028h-141l153 428h144z" />
    <glyph glyph-name="quotesinglbase" unicode="&#x201a;" horiz-adv-x="397" 
d="M166 -162h-141l153 428h144z" />
    <glyph glyph-name="quotedblleft" unicode="&#x201c;" horiz-adv-x="692" 
d="M526 1028l-155 428h143l154 -428h-142zM231 1028l-153 428h141l156 -428h-144z" />
    <glyph glyph-name="quotedblright" unicode="&#x201d;" horiz-adv-x="692" 
d="M461 1028h-144l156 428h141zM166 1028h-141l153 428h144z" />
    <glyph glyph-name="quotedblbase" unicode="&#x201e;" horiz-adv-x="692" 
d="M461 -162h-144l156 428h141zM166 -162h-141l153 428h144z" />
    <glyph glyph-name="dagger" unicode="&#x2020;" 
d="M438 -231v1142h-364v127h364v418h146v-418h366v-127h-366v-1142h-146z" />
    <glyph glyph-name="daggerdbl" unicode="&#x2021;" 
d="M434 -231v417h-364v127h364v598h-364v127h364v418h146v-418h374v-127h-374v-598h374v-127h-374v-417h-146z" />
    <glyph glyph-name="bullet" unicode="&#x2022;" horiz-adv-x="1208" 
d="M307 762c0 82 28.999 151.666 86.999 208.999s128 86 210 86c81.333 0 150.833 -28.833 208.5 -86.5s86.5 -127.167 86.5 -208.5s-29.167 -151.166 -87.5 -209.499s-128.166 -87.5 -209.499 -87.5c-82 0 -151.667 29 -209 87s-86 128 -86 210z" />
    <glyph glyph-name="ellipsis" unicode="&#x2026;" horiz-adv-x="2048" 
d="M413 0h-143v266h143v-266zM1095 0h-143v266h143v-266zM1779 0h-143v266h143v-266z" />
    <glyph glyph-name="perthousand" unicode="&#x2030;" horiz-adv-x="2693" 
d="M219 1122c0 -63.333 21.833 -117 65.5 -161s96.834 -66 159.501 -66c63.333 0 117.166 22.167 161.499 66.5s66.5 97.833 66.5 160.5c0 63.333 -22.167 117.166 -66.5 161.499s-98.166 66.5 -161.499 66.5c-62.667 0 -115.834 -22.167 -159.501 -66.5
s-65.5 -98.166 -65.5 -161.499zM90 1126c0 100 35 184.833 105 254.5s155.333 104.5 256 104.5c99.333 0 183.833 -35 253.5 -105s104.5 -154.667 104.5 -254c0 -100 -34.667 -184.667 -104 -254s-154 -104 -254 -104c-100.667 0 -186 34.667 -256 104s-105 154 -105 254z
M2015 328c0 -62.667 22 -116 66 -160s98 -66 162 -66c62.667 0 116.167 21.833 160.5 65.5s66.5 97.167 66.5 160.5c0 62 -22.333 115.333 -67 160s-98 67 -160 67c-63.333 0 -117.166 -22.167 -161.5 -66.5c-44.333 -44.333 -66.5 -97.833 -66.5 -160.5zM1888 330
c0 99.333 34.833 183.833 104.5 253.5s154.5 104.5 254.5 104.5c99.333 0 183.833 -34.833 253.5 -104.5s104.5 -154.167 104.5 -253.5c0 -100.667 -34.667 -185.667 -104 -255s-154 -104 -254 -104c-100.667 0 -185.667 34.667 -255 104s-104 154.333 -104 255zM1231 1485
h115l-777 -1514h-116zM1116 330c0 -64 22.001 -117.999 66.001 -161.999s97.667 -66 161 -66s117.166 22.167 161.499 66.5s66.5 98.166 66.5 161.499c0 62.667 -22 115.834 -66 159.501s-98 65.5 -162 65.5c-63.333 0 -117 -21.833 -161 -65.5s-66 -96.834 -66 -159.501z
M987.001 330.001c0 99.333 34.833 183.833 104.5 253.5s154.5 104.5 254.5 104.5c99.333 0 183.833 -34.833 253.5 -104.5s104.5 -154.167 104.5 -253.5c0 -100.667 -34.667 -185.667 -104 -255s-154 -104 -254 -104c-100.667 0 -185.667 34.667 -255 104
s-104 154.333 -104 255z" />
    <glyph glyph-name="guilsinglleft" unicode="&#x2039;" horiz-adv-x="631" 
d="M360 229l-245 320l245 321h138l-248 -321l248 -320h-138z" />
    <glyph glyph-name="guilsinglright" unicode="&#x203a;" horiz-adv-x="631" 
d="M270 229h-137l248 320l-248 321h137l246 -321z" />
    <glyph glyph-name="trademark" unicode="&#x2122;" horiz-adv-x="1706" 
d="M938 1454l166 -422l156 422h116v-530h-71v467l-177 -467h-49l-186 467v-467h-72v530h117zM694 1454v-57h-172v-473h-82v473h-176v57h430z" />
    <glyph glyph-name="glyph1" horiz-adv-x="0" 
 />
    <glyph glyph-name="glyph2" horiz-adv-x="578" 
 />
    <glyph glyph-name="glyph139" horiz-adv-x="1706" 
d="M1288 1110l-205 -264h369v-96h-432l-215 -277h647v-98h-709l-254 -324l-73 60l205 264h-367v98h428l215 277h-643v96h707l253 323z" />
    <glyph glyph-name="glyph142" horiz-adv-x="1706" 
d="M897 559c34.667 -66.667 75.334 -116.501 122.001 -149.501s99.667 -49.5 159 -49.5c70.667 0 128.5 25 173.5 75s67.5 114 67.5 192c0 75.333 -20.833 137.833 -62.5 187.5s-93.834 74.5 -156.501 74.5c-57.333 0 -109 -24.667 -155 -74s-95.333 -134.666 -148 -255.999
zM811 667.999c-34.667 66 -75.166 115.168 -121.499 147.501s-99.5 48.5 -159.5 48.5c-70.667 0 -128.5 -24.833 -173.5 -74.5s-67.5 -112.834 -67.5 -189.501c0 -74.667 21 -137 63 -187s94 -75 156 -75c58 0 110.167 25 156.5 75s95.166 135 146.499 255zM838.001 721
c48 96 97.665 164.67 148.998 206.003s112 62 182 62c82.667 0 154.334 -35.833 215.001 -107.5s91 -160.167 91 -265.5c0 -112.667 -27.167 -203.834 -81.5 -273.501s-124.833 -104.5 -211.5 -104.5c-63.333 0 -119.333 20.167 -168 60.5s-97.334 108.166 -146.001 203.499
c-47.333 -92.667 -96.666 -159.834 -147.999 -201.501s-109 -62.5 -173 -62.5c-88 0 -162.333 35.5 -223 106.5s-91 160.167 -91 267.5c0 112.667 27.167 203.667 81.5 273s124.833 104 211.5 104c64.667 0 121.834 -21.333 171.501 -64s96.5 -110.667 140.5 -204z" />
    <glyph glyph-name="glyph144" horiz-adv-x="1706" 
d="M1442 139v-98h-1178v98h1178zM1442 1075l-1010 -338l1010 -336v-106l-1178 401v84l1178 402v-107z" />
    <glyph glyph-name="glyph145" horiz-adv-x="1706" 
d="M1442 139v-98h-1178v98h1178zM1442 780v-84l-1178 -401v106l1010 336l-1010 338v107z" />
    <glyph glyph-name="glyph148" horiz-adv-x="1034" 
d="M752 592c8 55.333 14 108.667 18 160s6 101 6 149c0 105.333 -13.333 186 -40 242s-65 84 -115 84c-33.333 0 -69.333 -22.833 -108 -68.5s-73 -68.5 -103 -68.5c-20.667 0 -38.167 6.66699 -52.5 20s-21.5 29 -21.5 47c0 41.333 21.167 77 63.5 107
s94.166 45 155.499 45c110 0 198 -50.167 264 -150.5s99 -235.833 99 -406.5c0 -222.667 -45.333 -408.167 -136 -556.5s-201.667 -222.5 -333 -222.5c-95.333 0 -173.166 35.667 -233.499 107s-90.5 164 -90.5 278c0 119.333 36.333 220.833 109 304.5s160 125.5 262 125.5
c65.333 0 118.833 -16 160.5 -48s73.5 -81.333 95.5 -148zM711 463.001c0 85.333 -15 149.667 -45 193s-74.667 65 -134 65c-75.333 0 -137.5 -41.5 -186.5 -124.5s-73.5 -190.5 -73.5 -322.5c0 -84 14.833 -146.833 44.5 -188.5s74.5 -62.5 134.5 -62.5
c74.667 0 136.667 41.833 186 125.5s74 188.5 74 314.5z" />
    <glyph glyph-name="glyph149" horiz-adv-x="1317" 
d="M49 1473h1223v-144h-1014l705 -766l-740 -813h1057v-143h-1266v133l744 821l-709 772v140z" />
    <glyph glyph-name="glyph150" horiz-adv-x="1509" 
d="M160 1473h1188v-1866h-168v1718h-852v-1718h-168v1866z" />
    <glyph glyph-name="glyph151" horiz-adv-x="1171" 
d="M1120 944h-182.003l-115 -541c-10 -46 -17.5 -85 -22.5 -117s-7.5 -55.667 -7.5 -71c0 -38.667 8.33301 -66 25 -82s45 -24 85 -24c19.333 0 36.333 0.833008 51 2.5s28.334 3.83398 41.001 6.50098l-26 -118c-18.667 -5.33301 -36.5 -9.33301 -53.5 -12
s-32.833 -4 -47.5 -4c-67.333 0 -119.666 17.667 -156.999 53s-56 85 -56 149c0 30.667 3.66699 70 11 118s22.333 125.667 45 233l86 407h-365l-199 -944h-139l199 944h-39c-36.667 0 -65.167 -10.5 -85.5 -31.5s-34.166 -54.167 -41.499 -99.5h-131
c16.667 95.333 46 161.166 88 197.499s113.667 54.5 215 54.5h848z" />
    <glyph glyph-name="glyph152" horiz-adv-x="985" 
d="M293 -272c69.333 0 108.333 237.665 117 712.998c1.33301 84.667 2.66602 150 3.99902 196c7.33301 324 40 556.833 98 698.5s147.333 212.5 268 212.5c46.667 0 84.667 -12.333 114 -37s44 -56.667 44 -96c0 -32 -9.5 -57.333 -28.5 -76s-45.167 -28 -78.5 -28
c-52 0 -86.333 23.167 -103 69.5s-28 69.5 -34 69.5c-70 0 -108.667 -207.667 -116 -623c-2.66699 -123.333 -5 -219.666 -7 -288.999c-10 -331.333 -43.667 -565.666 -101 -702.999s-146.333 -206 -267 -206c-46 0 -83.833 12 -113.5 36s-44.5 54.333 -44.5 91
c0 34 10.333 61 31 81s48 30 82 30c24 0 44.5 -5.5 61.5 -16.5s30.5 -28.167 40.5 -51.5c2.66699 -6 5 -17 7 -33c2.66699 -25.333 11.334 -38 26.001 -38z" />
    <glyph glyph-name="glyph155" horiz-adv-x="1579" 
d="M1462 139l0.000976562 -138.999h-581v127c138 82.667 242.333 180.5 313 293.5s106 237.833 106 374.5c0 173.333 -47.167 313.5 -141.5 420.5s-216.833 160.5 -367.5 160.5c-152 0 -275.333 -53.333 -370 -160s-142 -246.334 -142 -419.001
c0 -138 35.5 -263.833 106.5 -377.5s175.167 -211.167 312.5 -292.5v-127h-581v139h344c-115.333 88.667 -200.833 185.834 -256.5 291.501s-83.5 223.5 -83.5 353.5c0 213.333 62.833 388.166 188.5 524.499s286.167 204.5 481.5 204.5c194 0 354 -67.833 480 -203.5
s189 -310.167 189 -523.5c0 -130.667 -27.833 -248.667 -83.5 -354s-141.834 -203 -258.501 -293h344z" />
    <glyph glyph-name="glyph161" horiz-adv-x="1276" 
d="M1276 1636v-71h-125l-594 -1606h-41l-328 899l-114 -39l-19 58l246 86l272 -746l525 1419h178z" />
    <glyph glyph-name="glyph163" horiz-adv-x="1706" 
d="M1530 469c-70.667 -49.333 -137.664 -85.833 -200.997 -109.5s-125.333 -35.5 -186 -35.5c-67.333 0 -164.333 23.167 -291 69.5s-222.334 69.5 -287.001 69.5c-54.667 0 -111.667 -12.167 -171 -36.5s-131.333 -65.5 -216 -123.5v111
c71.333 49.333 138.666 85.833 201.999 109.5s125 35.5 185 35.5c72.667 0 172.167 -22.833 298.5 -68.5s219.5 -68.5 279.5 -68.5c57.333 0 115.666 11.833 174.999 35.5s130 64.5 212 122.5v-111zM1530 807c-69.333 -49.333 -135.667 -85.833 -199 -109.5
s-126 -35.5 -188 -35.5c-68.667 0 -166 23.167 -292 69.5s-221.333 69.5 -286 69.5c-54.667 0 -111.667 -12.167 -171 -36.5s-131.333 -65.5 -216 -123.5v113c70 48.667 137 85 201 109s126 36 186 36c72.667 0 172.167 -23.167 298.5 -69.5s219.5 -69.5 279.5 -69.5
c56 0 113 11.5 171 34.5s130 64.167 216 123.5v-111z" />
    <glyph glyph-name="glyph164" horiz-adv-x="1346" 
d="M1139 139l-467 1186l-465 -1186h932zM766 1473l590 -1473h-1366l590 1473h186z" />
    <glyph glyph-name="glyph179" horiz-adv-x="1012" 
d="M506 1409l-385 -817l385 -825l385 825zM506 1653l500 -1061l-500 -1069l-500 1069z" />
    <glyph glyph-name="glyph182" horiz-adv-x="342" 
d="M-221 -29h-121l905 1514h119z" />
    <glyph glyph-name="glyph186" horiz-adv-x="952" 
d="M674 0v1100h141v-1100h-141zM309 0l-137 -0.000976562v977h-147v123h141v30c0 116.667 29.333 203 88 259s148.667 84 270 84h13v-127c-84 -1.33301 -143.333 -18.166 -178 -50.499s-52 -87.5 -52 -165.5v-30h230v-123h-228v-977zM815 1229h-141v227h141v-227z" />
    <glyph glyph-name="glyph187" horiz-adv-x="952" 
d="M674 0v1456h141v-1456h-141zM309 0l-137 -0.000976562v977h-147v123h141v30c0 116.667 29.5 203 88.5 259s149.5 84 271.5 84h11v-127c-84 -1.33301 -143.333 -18.166 -178 -50.499s-52 -87.5 -52 -165.5v-30h230v-123h-228v-977z" />
    <glyph glyph-name="glyph189" horiz-adv-x="578" 
d="M197 729c0 26 9 48.167 27 66.5s39.667 27.5 65 27.5s47.333 -9.33301 66 -28s28 -40.667 28 -66s-9.16699 -47 -27.5 -65s-40.5 -27 -66.5 -27s-47.833 9 -65.5 27s-26.5 39.667 -26.5 65z" />
    <glyph glyph-name="glyph204" horiz-adv-x="1618" 
d="M836 1216c-0.666992 4 -1.16699 8.66895 -1.5 14.002s-0.5 13 -0.5 23c0 82.667 31.667 159.167 95 229.5s142 114.166 236 131.499c0.666992 -6.66699 1.16699 -14.334 1.5 -23.001s0.5 -21.667 0.5 -39c0 -87.333 -34.5 -165.5 -103.5 -234.5
s-136.833 -103.5 -203.5 -103.5h-8c-2 0 -4.5 0.333008 -7.5 1s-5.83301 1 -8.5 1zM1505 403.002c-76 -164.667 -144.335 -278.835 -205.002 -342.502s-128.667 -95.5 -204 -95.5c-33.333 0 -77.166 11 -131.499 33s-95.166 33 -122.499 33c-30 0 -73.667 -11 -131 -33
s-99.666 -33 -126.999 -33c-42.667 0 -85.5 14.667 -128.5 44s-86.167 73.333 -129.5 132c-68 93.333 -120.5 191.833 -157.5 295.5s-55.5 203.834 -55.5 300.501c0 146 41.667 264.833 125 356.5s191 137.5 323 137.5c45.333 0 97 -11.333 155 -34s99.333 -34 124 -34
c22.667 0 63.167 11.333 121.5 34s109.166 34 152.499 34c74 0 140.333 -13.167 199 -39.5s112 -67.166 160 -122.499c-68 -43.333 -118.5 -91.833 -151.5 -145.5s-49.5 -114.5 -49.5 -182.5c0 -75.333 20 -142 60 -200s97.667 -104 173 -138z" />
    <glyph glyph-name="glyph209" horiz-adv-x="371" 
d="M115 0v1100h141v-1100h-141z" />
    <glyph glyph-name="glyph213" 
d="M238 1554h79.001c4 -50 21.667 -86.667 53 -110s78.666 -35 141.999 -35c64 0 111 11.5 141 34.5s47.333 59.833 52 110.5h81c-6 -90.667 -30.833 -157 -74.5 -199s-110.167 -63 -199.5 -63c-88.667 0 -155 21.167 -199 63.5s-69 108.5 -75 198.5z" />
    <glyph glyph-name="glyph214" 
d="M436 1319v176h152v-176h-152z" />
    <glyph glyph-name="glyph215" 
d="M362 1468c0 -42 14.5 -77.333 43.5 -106s64.5 -43 106.5 -43c41.333 0 76.666 14.5 105.999 43.5s44 64.167 44 105.5c0 42 -14.667 77.833 -44 107.5s-64.666 44.5 -105.999 44.5c-42 0 -77.5 -14.667 -106.5 -44s-43.5 -65.333 -43.5 -108zM272 1470
c0 67.333 23.1689 124.168 69.502 170.501s103.166 69.5 170.499 69.5c66.667 0 123.667 -23.333 171 -70s71 -103.334 71 -170.001c0 -66 -23.667 -122.667 -71 -170s-104.333 -71 -171 -71s-123.334 23.5 -170.001 70.5s-70 103.833 -70 170.5z" />
    <glyph glyph-name="glyph217" 
d="M571 1247l168 350h133l-227 -350h-74zM336 1247l149 350h133l-208 -350h-74z" />
    <glyph glyph-name="glyph218" 
d="M580 0c-48.667 -42 -85.167 -82.833 -109.5 -122.5s-36.5 -77.5 -36.5 -113.5c0 -30.667 8.16699 -52.667 24.5 -66s44.5 -20 84.5 -20h75v-104h-73c-72 0 -124.833 13.167 -158.5 39.5s-50.5 67.166 -50.5 122.499c0 40.667 15.333 83.334 46 128.001s76 90 136 136h62z
" />
    <glyph glyph-name="glyph219" 
d="M236 1597h92l184 -262l184 262h92l-200 -348h-152z" />
    <glyph glyph-name="glyph220" horiz-adv-x="858" 
d="M805 0h-655v575l-150 -106v143l150 105v739h143v-641l256 178v-145l-256 -176v-531h512v-141z" />
    <glyph glyph-name="glyph221" horiz-adv-x="389" 
d="M133 0v645l-133 -92v139l133 94v670h141v-577l134 94v-142l-134 -92v-739h-141z" />
    <glyph glyph-name="glyph224" horiz-adv-x="938" 
d="M719 1313h-639v143h805v-137l-682 -1178h696v-141h-860v137zM193 1947h92l184 -262l184 262h92l-200 -348h-152z" />
    <glyph glyph-name="glyph225" horiz-adv-x="825" 
d="M780 0h-760v133l574 834h-510v133h666v-152l-562 -807h592v-141zM138 1597h92l184 -262l184 262h92l-200 -348h-152z" />
    <glyph glyph-name="glyph233" horiz-adv-x="1706" 
d="M1452 659v-98h-1198v98h1198z" />
    <glyph glyph-name="glyph241" horiz-adv-x="1503" 
d="M135 0v1456h719v-143h-578v-510h578v-144h-578v-659h-141zM1245 0l-143 -0.000976562v1100h133v-127c34.667 48.667 72.5 84.334 113.5 107.001s88.833 34.667 143.5 36l1 -153c-88.667 -8 -152.167 -34.5 -190.5 -79.5s-57.5 -118.167 -57.5 -219.5v-664z" />
    <glyph glyph-name="glyph242" horiz-adv-x="1612" 
d="M643 698l905.002 0.000976562c-12 -212 -88.333 -386.167 -229 -522.5s-313.334 -204.5 -518.001 -204.5c-210 0 -385.833 73.333 -527.5 220s-212.5 328.667 -212.5 546c0 102 19.333 198.667 58 290s95.334 173.666 170.001 246.999c72 71.333 151.667 124.333 239 159
s184.333 52 291 52c141.333 0 268.166 -34.167 380.499 -102.5s202.5 -165.833 270.5 -292.5h-176c-68.667 87.333 -142.167 151.833 -220.5 193.5s-165.833 62.5 -262.5 62.5c-167.333 0 -308.833 -59.833 -424.5 -179.5s-173.5 -263.5 -173.5 -431.5
c0 -178.667 57.667 -327.667 173 -447s257.666 -179 426.999 -179c133.333 0 252.833 42.667 358.5 128s174.5 196 206.5 332h-735v129zM533.002 1904h79.001c4 -50 21.667 -86.667 53 -110s78.666 -35 141.999 -35c64 0 111 11.5 141 34.5s47.333 59.833 52 110.5h81
c-6 -90.667 -30.833 -157 -74.5 -199s-110.167 -63 -199.5 -63c-88.667 0 -155 21.167 -199 63.5s-69 108.5 -75 198.5z" />
    <glyph glyph-name="glyph243" horiz-adv-x="1280" 
d="M301 -90c21.333 -64 59.9971 -113.832 115.997 -149.499s124 -53.5 204 -53.5c125.333 0 225.833 41.667 301.5 125s113.5 194.666 113.5 333.999v29c-53.333 -72.667 -114 -127.5 -182 -164.5s-143 -55.5 -225 -55.5c-165.333 0 -302.666 55.167 -411.999 165.5
s-164 247.833 -164 412.5c0 162 54 298 162 408s241.667 165 401 165c92.667 0 172.834 -16.667 240.501 -50s127.5 -85.333 179.5 -156v180h138v-918c0 -192 -48.167 -342 -144.5 -450s-229.166 -162 -398.499 -162c-124.667 0 -231.667 30.833 -321 92.5
s-147 144.167 -173 247.5h164zM202.997 559.001c0 -128.667 40.833 -236.334 122.5 -323.001s180.167 -130 295.5 -130c108.667 0 204.667 43.5 288 130.5s125 189.167 125 306.5c0 125.333 -41 232.333 -123 321s-178.667 133 -290 133
c-114.667 0 -213 -42.167 -295 -126.5s-123 -188.166 -123 -311.499zM366.997 1554h79.001c4 -50 21.667 -86.667 53 -110s78.666 -35 141.999 -35c64 0 111 11.5 141 34.5s47.333 59.833 52 110.5h81c-6 -90.667 -30.833 -157 -74.5 -199s-110.167 -63 -199.5 -63
c-88.667 0 -155 21.167 -199 63.5s-69 108.5 -75 198.5z" />
    <glyph glyph-name="glyph244" horiz-adv-x="412" 
d="M276 0h-143v1456h143v-1456zM131 1669v176h152v-176h-152z" />
    <glyph glyph-name="glyph245" horiz-adv-x="952" 
d="M58 416h137.997c2.66699 -90 28.167 -161.667 76.5 -215s111.833 -80 190.5 -80c84.667 0 151.834 26.5 201.501 79.5s74.5 124.833 74.5 215.5c0 132 -102 231.667 -306 299l-36 12c-106.667 36.667 -183.5 83.167 -230.5 139.5s-70.5 129.833 -70.5 220.5
c0 116 36.167 211 108.5 285s165.833 111 280.5 111c109.333 0 196 -33.667 260 -101s99.667 -162 107 -284h-135c-7.33301 79.333 -31 140.5 -71 183.5s-93.667 64.5 -161 64.5c-72 0 -130.833 -23.5 -176.5 -70.5s-68.5 -106.833 -68.5 -179.5
c0 -38 6.83301 -70.833 20.5 -98.5s35.5 -52.834 65.5 -75.501c30.667 -22.667 89.334 -48 176.001 -76c50 -16 88 -29 114 -39c94.667 -36.667 162.834 -83.5 204.501 -140.5s62.5 -131.833 62.5 -224.5c0 -141.333 -38.5 -255.166 -115.5 -341.499
s-179.167 -129.5 -306.5 -129.5c-118.667 0 -215 40.833 -289 122.5s-112 189.167 -114 322.5zM476.997 -111l19.999 -0.000976562c71.333 0 125.833 -14.667 163.5 -44s56.5 -72 56.5 -128s-19.667 -99.333 -59 -130s-95.666 -46 -168.999 -46c-38 0 -76.833 3 -116.5 9
s-84.834 16 -135.501 30v78c61.333 -13.333 109.833 -22.5 145.5 -27.5s66.5 -7.5 92.5 -7.5c42.667 0 74.834 7.5 96.501 22.5s32.5 37.5 32.5 67.5c0 36.667 -11.5 63.334 -34.5 80.001s-59.167 25 -108.5 25c-12.667 0 -22.167 -0.166992 -28.5 -0.5
s-12.5 -0.833008 -18.5 -1.5v184h63v-111z" />
    <glyph glyph-name="glyph246" horiz-adv-x="797" 
d="M43 346l145 -0.00292969v-4c0 -68.667 19.667 -125.5 59 -170.5s88 -67.5 146 -67.5c55.333 0 101.333 17.333 138 52s55 78.334 55 131.001s-14.5 95 -43.5 127s-81.5 62 -157.5 90c-122 43.333 -201.667 87.666 -239 132.999s-56 106 -56 182c0 86 31.167 159 93.5 219
s137.833 90 226.5 90c94 0 168.667 -26.667 224 -80s85 -127.666 89 -222.999h-151c-3.33301 52 -19.833 92.333 -49.5 121s-70.167 43 -121.5 43c-46 0 -84.333 -15.5 -115 -46.5s-46 -69.5 -46 -115.5c0 -32.667 6.33301 -60.167 19 -82.5s33.667 -42.5 63 -60.5
c26.667 -16.667 65.5 -32.667 116.5 -48s85.167 -26.666 102.5 -33.999c68.667 -29.333 119.167 -68.333 151.5 -117s48.5 -110.667 48.5 -186c0 -94.667 -33 -173 -99 -235s-149.667 -93 -251 -93c-103.333 0 -186.333 33.833 -249 101.5s-95.667 158.834 -99 273.501z
M399 -111.003l19.999 -0.000976562c71.333 0 125.833 -14.667 163.5 -44s56.5 -72 56.5 -128s-19.667 -99.333 -59 -130s-95.666 -46 -168.999 -46c-38 0 -76.833 3 -116.5 9s-84.834 16 -135.501 30v78c61.333 -13.333 109.833 -22.5 145.5 -27.5s66.5 -7.5 92.5 -7.5
c42.667 0 74.834 7.5 96.501 22.5s32.5 37.5 32.5 67.5c0 36.667 -11.5 63.334 -34.5 80.001s-59.167 25 -108.5 25c-12.667 0 -22.167 -0.166992 -28.5 -0.5s-12.5 -0.833008 -18.5 -1.5v184h63v-111z" />
    <glyph glyph-name="glyph247" horiz-adv-x="1540" 
d="M1296 1079c-65.333 90.667 -138.333 157.334 -219 200.001s-172.667 64 -276 64c-162 0 -300.5 -60 -415.5 -180s-172.5 -262.667 -172.5 -428c0 -176 57.167 -324.333 171.5 -445s253.166 -181 416.499 -181c100.667 0 191.667 21 273 63s152 104.667 212 188h170
c-66.667 -124 -156 -219.833 -268 -287.5s-237.667 -101.5 -377 -101.5c-214 0 -392.5 73 -535.5 219s-214.5 328.333 -214.5 547c0 102 19.333 198.667 58 290s95.334 173.666 170.001 246.999c69.333 69.333 147.166 121.833 233.499 157.5s179.833 53.5 280.5 53.5
c144.667 0 274.834 -35.333 390.501 -106s207.167 -170.667 274.5 -300h-172zM768 1597h-92l209 350h152z" />
    <glyph glyph-name="glyph248" horiz-adv-x="1241" 
d="M993 762c-43.333 80 -96.166 139.166 -158.499 177.499s-136.5 57.5 -222.5 57.5c-113.333 0 -209.5 -43 -288.5 -129s-118.5 -192.333 -118.5 -319s39.667 -232.5 119 -317.5s177.333 -127.5 294 -127.5c85.333 0 160.666 21 225.999 63s115 101 149 177h156
c-42.667 -119.333 -109.667 -211.666 -201 -276.999s-199 -98 -323 -98c-159.333 0 -293.833 56.5 -403.5 169.5s-164.5 249.167 -164.5 408.5c0 162.667 55.5 300.5 166.5 413.5s246.167 169.5 405.5 169.5c119.333 0 224.5 -32.167 315.5 -96.5
s159.167 -154.833 204.5 -271.5h-156zM588 1247h-92l209 350h152z" />
    <glyph glyph-name="glyph249" horiz-adv-x="1540" 
d="M1296 1079c-65.333 90.667 -138.333 157.334 -219 200.001s-172.667 64 -276 64c-162 0 -300.5 -60 -415.5 -180s-172.5 -262.667 -172.5 -428c0 -176 57.167 -324.333 171.5 -445s253.166 -181 416.499 -181c100.667 0 191.667 21 273 63s152 104.667 212 188h170
c-66.667 -124 -156 -219.833 -268 -287.5s-237.667 -101.5 -377 -101.5c-214 0 -392.5 73 -535.5 219s-214.5 328.333 -214.5 547c0 102 19.333 198.667 58 290s95.334 173.666 170.001 246.999c69.333 69.333 147.166 121.833 233.499 157.5s179.833 53.5 280.5 53.5
c144.667 0 274.834 -35.333 390.501 -106s207.167 -170.667 274.5 -300h-172zM525 1947h92l184 -262l184 262h92l-200 -348h-152z" />
    <glyph glyph-name="glyph250" horiz-adv-x="1241" 
d="M993 762c-43.333 80 -96.166 139.166 -158.499 177.499s-136.5 57.5 -222.5 57.5c-113.333 0 -209.5 -43 -288.5 -129s-118.5 -192.333 -118.5 -319s39.667 -232.5 119 -317.5s177.333 -127.5 294 -127.5c85.333 0 160.666 21 225.999 63s115 101 149 177h156
c-42.667 -119.333 -109.667 -211.666 -201 -276.999s-199 -98 -323 -98c-159.333 0 -293.833 56.5 -403.5 169.5s-164.5 249.167 -164.5 408.5c0 162.667 55.5 300.5 166.5 413.5s246.167 169.5 405.5 169.5c119.333 0 224.5 -32.167 315.5 -96.5
s159.167 -154.833 204.5 -271.5h-156zM345 1597h92l184 -262l184 262h92l-200 -348h-152z" />
    <glyph glyph-name="glyph251" horiz-adv-x="1305" 
d="M1042 539c0 125.333 -41.5 232.333 -124.5 321s-180.5 133 -292.5 133c-116 0 -215.333 -42.167 -298 -126.5s-124 -187.5 -124 -309.5c0 -128.667 41.5 -236.667 124.5 -324s183.5 -131 301.5 -131c108.667 0 204.667 43.667 288 131s125 189.333 125 306zM1044 926
c-2 34.667 -3.49902 70 -4.49902 106s-1.5 82.333 -1.5 139v23h-293v109h293v153h142v-153h149v-109h-149v-1194h-138v166c-51.333 -62 -114 -110 -188 -144s-151.667 -51 -233 -51c-158.667 0 -292.334 56 -401.001 168s-163 249.333 -163 412
c0 161.333 53.667 297.166 161 407.499s241.666 165.5 402.999 165.5c86 0 164.833 -16.667 236.5 -50s133.834 -82.666 186.501 -147.999z" />
    </font>
</defs>
</svg>
